%
M48
M72
T01C0.0197
T02C0.0315
T03C0.0320
T04C0.0400
T05C0.1102
%
T01
X2980Y880
X5880Y1930
X5280Y2280
X9380Y1380
X7680Y580
X11930Y2230
X12330Y3130
X11730Y4380
X14280Y5380
X16580Y5380
X16830Y6630
X18280Y7580
X15280Y8780
X10780Y6080
X9030Y6030
X6080Y6880
X2480Y6680
X6180Y10280
X23780Y8380
X27680Y7580
X30980Y6280
X32680Y6580
X33980Y7080
X32280Y7930
X31780Y7580
X34180Y9580
X30380Y10680
X30380Y11580
X29280Y12580
X31780Y13480
X29480Y13880
X34380Y13480
X28980Y9580
X34530Y5380
X34180Y5080
X35180Y4180
X34780Y3680
X33780Y3330
X33280Y3330
X33280Y2830
X33130Y2380
X33130Y1880
X31630Y2580
X31180Y2880
X31630Y3080
X33730Y3880
X29580Y2080
X27180Y2630
X23980Y4180
X25030Y4780
X29480Y680
X33080Y580
T02
X28507Y1221
X27507Y1221
X26507Y1221
X25507Y1221
X24507Y1221
X23507Y1221
X22507Y1221
X21507Y1221
X20507Y1221
X19507Y1221
X18507Y1221
X17507Y1221
X16507Y1221
X15507Y1221
X14507Y1221
X13507Y1221
T03
X32595Y9054
X32595Y10054
X32595Y11054
X33930Y11680
X32595Y12054
X34930Y12680
X32595Y13054
X32595Y14054
X35930Y11680
T04
X36082Y8204
X33522Y8204
X33522Y6424
X36082Y6424
T05
X1160Y1221
X30656Y1221
X30656Y13395
X1160Y13395
M30
