G75*
%MOIN*%
%OFA0B0*%
%FSLAX24Y24*%
%IPPOS*%
%LPD*%
%AMOC8*
5,1,8,0,0,1.08239X$1,22.5*
%
%ADD10C,0.0060*%
%ADD11C,0.0120*%
%ADD12C,0.0050*%
%ADD13C,0.0080*%
%ADD14C,0.0100*%
%ADD15C,0.0150*%
D10*
X008432Y006753D02*
X008475Y006710D01*
X008562Y006710D01*
X008605Y006753D01*
X008432Y006927D01*
X008432Y006753D01*
X008605Y006753D02*
X008605Y006927D01*
X008562Y006970D01*
X008475Y006970D01*
X008432Y006927D01*
X008727Y006883D02*
X008727Y006710D01*
X008727Y006840D02*
X008900Y006840D01*
X008900Y006883D02*
X008900Y006710D01*
X008900Y006883D02*
X008813Y006970D01*
X008727Y006883D01*
X009932Y006710D02*
X010105Y006710D01*
X010019Y006710D02*
X010019Y006970D01*
X010105Y006883D01*
X010227Y006883D02*
X010227Y006710D01*
X010227Y006840D02*
X010400Y006840D01*
X010400Y006883D02*
X010400Y006710D01*
X010400Y006883D02*
X010313Y006970D01*
X010227Y006883D01*
X010044Y007460D02*
X010087Y007503D01*
X009914Y007677D01*
X009914Y007503D01*
X009957Y007460D01*
X010044Y007460D01*
X010087Y007503D02*
X010087Y007677D01*
X010044Y007720D01*
X009957Y007720D01*
X009914Y007677D01*
X009793Y007633D02*
X009619Y007460D01*
X009498Y007460D02*
X009325Y007633D01*
X009325Y007677D01*
X009368Y007720D01*
X009455Y007720D01*
X009498Y007677D01*
X009619Y007633D02*
X009793Y007460D01*
X009498Y007460D02*
X009325Y007460D01*
X009203Y007460D02*
X009203Y007503D01*
X009030Y007677D01*
X009030Y007720D01*
X009203Y007720D01*
X008614Y007720D02*
X008527Y007720D01*
X008571Y007720D02*
X008571Y007460D01*
X008614Y007460D02*
X008527Y007460D01*
X008418Y007460D02*
X008244Y007633D01*
X008244Y007677D01*
X008288Y007720D01*
X008374Y007720D01*
X008418Y007677D01*
X008418Y007460D02*
X008244Y007460D01*
X008123Y007503D02*
X008080Y007460D01*
X007993Y007460D01*
X007950Y007503D01*
X008123Y007503D02*
X008123Y007677D01*
X008080Y007720D01*
X007993Y007720D01*
X007950Y007677D01*
X010492Y007633D02*
X010579Y007633D01*
X010535Y007677D02*
X010535Y007503D01*
X010492Y007460D01*
X010688Y007460D02*
X010775Y007460D01*
X010732Y007460D02*
X010732Y007720D01*
X010775Y007720D01*
X010896Y007633D02*
X010896Y007460D01*
X011026Y007460D01*
X011070Y007503D01*
X011070Y007633D01*
X011191Y007590D02*
X011234Y007633D01*
X011321Y007633D01*
X011321Y007547D02*
X011191Y007547D01*
X011191Y007590D02*
X011191Y007460D01*
X011321Y007460D01*
X011364Y007503D01*
X011321Y007547D01*
X011474Y007590D02*
X011561Y007590D01*
X011517Y007677D02*
X011517Y007460D01*
X011682Y007547D02*
X011855Y007547D01*
X011855Y007590D02*
X011812Y007633D01*
X011725Y007633D01*
X011682Y007590D01*
X011682Y007547D01*
X011725Y007460D02*
X011812Y007460D01*
X011855Y007503D01*
X011855Y007590D01*
X011977Y007503D02*
X011977Y007677D01*
X012020Y007720D01*
X012150Y007720D01*
X012150Y007460D01*
X012020Y007460D01*
X011977Y007503D01*
X011517Y007677D02*
X011474Y007720D01*
X011475Y006970D02*
X011562Y006970D01*
X011605Y006927D01*
X011727Y006883D02*
X011727Y006710D01*
X011605Y006710D02*
X011432Y006883D01*
X011432Y006927D01*
X011475Y006970D01*
X011432Y006710D02*
X011605Y006710D01*
X011727Y006840D02*
X011900Y006840D01*
X011900Y006883D02*
X011900Y006710D01*
X011900Y006883D02*
X011813Y006970D01*
X011727Y006883D01*
X033580Y010430D02*
X033680Y010330D01*
X033930Y010330D01*
X034680Y010330D01*
X034530Y010480D02*
X033930Y010480D01*
X033930Y010330D01*
X033580Y010430D02*
X033580Y011080D01*
X033580Y011580D02*
X033580Y012930D01*
X033680Y013030D01*
X036180Y013030D01*
X036280Y012930D01*
X036280Y011580D01*
X035530Y011680D02*
X035230Y011680D01*
X035080Y011530D01*
X035080Y011380D01*
X035080Y011080D01*
X034780Y011080D01*
X034780Y011380D01*
X034780Y011530D01*
X034630Y011680D01*
X034330Y011680D01*
X034330Y011980D01*
X034630Y011980D01*
X034780Y012130D01*
X034780Y012280D01*
X034780Y012580D01*
X035080Y012580D01*
X035080Y012280D01*
X035080Y012130D01*
X035230Y011980D01*
X035530Y011980D01*
X035530Y011680D01*
X035080Y011380D02*
X034780Y011380D01*
X036280Y011080D02*
X036280Y010430D01*
X036180Y010330D01*
X035930Y010330D01*
X035180Y010330D01*
X035330Y010480D02*
X035930Y010480D01*
X035930Y010330D01*
X035080Y012280D02*
X034780Y012280D01*
X035475Y013210D02*
X035475Y013470D01*
X035605Y013340D01*
X035432Y013340D01*
X035727Y013340D02*
X035770Y013297D01*
X035900Y013297D01*
X035813Y013297D02*
X035727Y013210D01*
X035727Y013340D02*
X035727Y013427D01*
X035770Y013470D01*
X035900Y013470D01*
X035900Y013210D01*
D11*
X034930Y012900D02*
X034930Y012750D01*
X034230Y012480D02*
X034130Y012580D01*
X035680Y012480D02*
X035780Y012580D01*
X035870Y011830D02*
X036020Y011830D01*
X033990Y011830D02*
X033840Y011830D01*
D12*
X033785Y010945D02*
X033728Y010889D01*
X033728Y010832D01*
X033785Y010775D01*
X033728Y010718D01*
X033728Y010662D01*
X033785Y010605D01*
X033898Y010605D01*
X033955Y010662D01*
X033842Y010775D02*
X033785Y010775D01*
X033785Y010945D02*
X033898Y010945D01*
X033955Y010889D01*
X035828Y010605D02*
X036055Y010605D01*
X035942Y010605D02*
X035942Y010945D01*
X036055Y010832D01*
D13*
X012230Y006230D02*
X012230Y005130D01*
X012228Y005113D01*
X012224Y005096D01*
X012217Y005080D01*
X012207Y005066D01*
X012194Y005053D01*
X012180Y005043D01*
X012164Y005036D01*
X012147Y005032D01*
X012130Y005030D01*
X011530Y005030D01*
X011513Y005032D01*
X011496Y005036D01*
X011480Y005043D01*
X011466Y005053D01*
X011453Y005066D01*
X011443Y005080D01*
X011436Y005096D01*
X011432Y005113D01*
X011430Y005130D01*
X011430Y006230D01*
X011432Y006247D01*
X011436Y006264D01*
X011443Y006280D01*
X011453Y006294D01*
X011466Y006307D01*
X011480Y006317D01*
X011496Y006324D01*
X011513Y006328D01*
X011530Y006330D01*
X012130Y006330D01*
X012147Y006328D01*
X012164Y006324D01*
X012180Y006317D01*
X012194Y006307D01*
X012207Y006294D01*
X012217Y006280D01*
X012224Y006264D01*
X012228Y006247D01*
X012230Y006230D01*
X010530Y006230D02*
X010530Y005130D01*
X010528Y005113D01*
X010524Y005096D01*
X010517Y005080D01*
X010507Y005066D01*
X010494Y005053D01*
X010480Y005043D01*
X010464Y005036D01*
X010447Y005032D01*
X010430Y005030D01*
X009830Y005030D01*
X009813Y005032D01*
X009796Y005036D01*
X009780Y005043D01*
X009766Y005053D01*
X009753Y005066D01*
X009743Y005080D01*
X009736Y005096D01*
X009732Y005113D01*
X009730Y005130D01*
X009730Y006230D01*
X009732Y006247D01*
X009736Y006264D01*
X009743Y006280D01*
X009753Y006294D01*
X009766Y006307D01*
X009780Y006317D01*
X009796Y006324D01*
X009813Y006328D01*
X009830Y006330D01*
X010430Y006330D01*
X010447Y006328D01*
X010464Y006324D01*
X010480Y006317D01*
X010494Y006307D01*
X010507Y006294D01*
X010517Y006280D01*
X010524Y006264D01*
X010528Y006247D01*
X010530Y006230D01*
X008830Y006230D02*
X008830Y005130D01*
X008828Y005113D01*
X008824Y005096D01*
X008817Y005080D01*
X008807Y005066D01*
X008794Y005053D01*
X008780Y005043D01*
X008764Y005036D01*
X008747Y005032D01*
X008730Y005030D01*
X008130Y005030D01*
X008113Y005032D01*
X008096Y005036D01*
X008080Y005043D01*
X008066Y005053D01*
X008053Y005066D01*
X008043Y005080D01*
X008036Y005096D01*
X008032Y005113D01*
X008030Y005130D01*
X008030Y006230D01*
X008032Y006247D01*
X008036Y006264D01*
X008043Y006280D01*
X008053Y006294D01*
X008066Y006307D01*
X008080Y006317D01*
X008096Y006324D01*
X008113Y006328D01*
X008130Y006330D01*
X008730Y006330D01*
X008747Y006328D01*
X008764Y006324D01*
X008780Y006317D01*
X008794Y006307D01*
X008807Y006294D01*
X008817Y006280D01*
X008824Y006264D01*
X008828Y006247D01*
X008830Y006230D01*
D14*
X009080Y004397D02*
X009147Y004330D01*
X009080Y004397D02*
X009080Y004530D01*
X009147Y004597D01*
X009213Y004597D01*
X009280Y004530D01*
X009280Y004397D01*
X009347Y004330D01*
X009414Y004330D01*
X009480Y004397D01*
X009480Y004530D01*
X009414Y004597D01*
X009147Y004790D02*
X009080Y004857D01*
X009080Y004924D01*
X009147Y004991D01*
X009480Y004991D01*
X009480Y005057D02*
X009480Y004924D01*
X009347Y005251D02*
X009480Y005384D01*
X009080Y005384D01*
X009080Y005251D02*
X009080Y005518D01*
X010780Y005518D02*
X010780Y005251D01*
X011047Y005518D01*
X011114Y005518D01*
X011180Y005451D01*
X011180Y005318D01*
X011114Y005251D01*
X011180Y005057D02*
X011180Y004924D01*
X011180Y004991D02*
X010847Y004991D01*
X010780Y004924D01*
X010780Y004857D01*
X010847Y004790D01*
X010847Y004597D02*
X010780Y004530D01*
X010780Y004397D01*
X010847Y004330D01*
X010980Y004397D02*
X010980Y004530D01*
X010913Y004597D01*
X010847Y004597D01*
X010980Y004397D02*
X011047Y004330D01*
X011114Y004330D01*
X011180Y004397D01*
X011180Y004530D01*
X011114Y004597D01*
D15*
X012505Y004580D02*
X012505Y004463D01*
X012563Y004405D01*
X012680Y004463D02*
X012680Y004580D01*
X012622Y004639D01*
X012563Y004639D01*
X012505Y004580D01*
X012680Y004463D02*
X012739Y004405D01*
X012797Y004405D01*
X012855Y004463D01*
X012855Y004580D01*
X012797Y004639D01*
X012563Y004865D02*
X012505Y004924D01*
X012505Y004982D01*
X012563Y005041D01*
X012855Y005041D01*
X012855Y005099D02*
X012855Y004982D01*
X012797Y005326D02*
X012855Y005384D01*
X012855Y005501D01*
X012797Y005559D01*
X012739Y005559D01*
X012680Y005501D01*
X012622Y005559D01*
X012563Y005559D01*
X012505Y005501D01*
X012505Y005384D01*
X012563Y005326D01*
X012680Y005443D02*
X012680Y005501D01*
M02*
