G75*
%MOIN*%
%OFA0B0*%
%FSLAX24Y24*%
%IPPOS*%
%LPD*%
%AMOC8*
5,1,8,0,0,1.08239X$1,22.5*
%
%ADD10C,0.0050*%
%ADD11C,0.0060*%
%ADD12C,0.0170*%
%ADD13C,0.0030*%
%ADD14C,0.0080*%
D10*
X000160Y000221D02*
X031656Y000221D01*
X031656Y014395D01*
X000160Y014395D01*
X000160Y000221D01*
X001735Y002584D02*
X001735Y012032D01*
X030082Y012032D01*
X030082Y002584D01*
X001735Y002584D01*
X002523Y003371D02*
X002523Y003765D01*
X029294Y003765D01*
X029294Y003371D01*
X002523Y003371D01*
X004491Y004552D02*
X027326Y004552D01*
X027392Y004554D01*
X027458Y004559D01*
X027524Y004569D01*
X027589Y004582D01*
X027653Y004598D01*
X027716Y004618D01*
X027778Y004642D01*
X027838Y004669D01*
X027897Y004699D01*
X027954Y004733D01*
X028009Y004770D01*
X028062Y004810D01*
X028113Y004852D01*
X028161Y004898D01*
X028207Y004946D01*
X028249Y004997D01*
X028289Y005050D01*
X028326Y005105D01*
X028360Y005162D01*
X028390Y005221D01*
X028417Y005281D01*
X028441Y005343D01*
X028461Y005406D01*
X028477Y005470D01*
X028490Y005535D01*
X028500Y005601D01*
X028505Y005667D01*
X028507Y005733D01*
X028507Y008883D01*
X028505Y008949D01*
X028500Y009015D01*
X028490Y009081D01*
X028477Y009146D01*
X028461Y009210D01*
X028441Y009273D01*
X028417Y009335D01*
X028390Y009395D01*
X028360Y009454D01*
X028326Y009511D01*
X028289Y009566D01*
X028249Y009619D01*
X028207Y009670D01*
X028161Y009718D01*
X028113Y009764D01*
X028062Y009806D01*
X028009Y009846D01*
X027954Y009883D01*
X027897Y009917D01*
X027838Y009947D01*
X027778Y009974D01*
X027716Y009998D01*
X027653Y010018D01*
X027589Y010034D01*
X027524Y010047D01*
X027458Y010057D01*
X027392Y010062D01*
X027326Y010064D01*
X004491Y010064D01*
X002523Y010851D02*
X029294Y010851D01*
X029294Y011245D01*
X002523Y011245D01*
X002523Y010851D01*
X003310Y008883D02*
X003310Y005733D01*
X003312Y005667D01*
X003317Y005601D01*
X003327Y005535D01*
X003340Y005470D01*
X003356Y005406D01*
X003376Y005343D01*
X003400Y005281D01*
X003427Y005221D01*
X003457Y005162D01*
X003491Y005105D01*
X003528Y005050D01*
X003568Y004997D01*
X003610Y004946D01*
X003656Y004898D01*
X003704Y004852D01*
X003755Y004810D01*
X003808Y004770D01*
X003863Y004733D01*
X003920Y004699D01*
X003979Y004669D01*
X004039Y004642D01*
X004101Y004618D01*
X004164Y004598D01*
X004228Y004582D01*
X004293Y004569D01*
X004359Y004559D01*
X004425Y004554D01*
X004491Y004552D01*
X003310Y008883D02*
X003312Y008949D01*
X003317Y009015D01*
X003327Y009081D01*
X003340Y009146D01*
X003356Y009210D01*
X003376Y009273D01*
X003400Y009335D01*
X003427Y009395D01*
X003457Y009454D01*
X003491Y009511D01*
X003528Y009566D01*
X003568Y009619D01*
X003610Y009670D01*
X003656Y009718D01*
X003704Y009764D01*
X003755Y009806D01*
X003808Y009846D01*
X003863Y009883D01*
X003920Y009917D01*
X003979Y009947D01*
X004039Y009974D01*
X004101Y009998D01*
X004164Y010018D01*
X004228Y010034D01*
X004293Y010047D01*
X004359Y010057D01*
X004425Y010062D01*
X004491Y010064D01*
X031519Y009029D02*
X031669Y008879D01*
X031519Y009029D02*
X031970Y009029D01*
X031970Y008879D02*
X031970Y009179D01*
X033505Y009213D02*
X033505Y009087D01*
X033537Y009055D01*
X033600Y009055D01*
X033632Y009087D01*
X033632Y009150D01*
X033568Y009150D01*
X033505Y009213D02*
X033537Y009245D01*
X033600Y009245D01*
X033632Y009213D01*
X033726Y009245D02*
X033853Y009055D01*
X033853Y009245D01*
X033947Y009245D02*
X034042Y009245D01*
X034074Y009213D01*
X034074Y009087D01*
X034042Y009055D01*
X033947Y009055D01*
X033947Y009245D01*
X033726Y009245D02*
X033726Y009055D01*
X033758Y009905D02*
X033821Y009905D01*
X033853Y009937D01*
X033947Y009937D02*
X033947Y010063D01*
X033979Y010095D01*
X034042Y010095D01*
X034074Y010063D01*
X034074Y009937D02*
X034042Y009905D01*
X033979Y009905D01*
X033947Y009937D01*
X033853Y010063D02*
X033821Y010095D01*
X033758Y010095D01*
X033726Y010063D01*
X033726Y009937D01*
X033758Y009905D01*
X033632Y009968D02*
X033632Y010095D01*
X033632Y009968D02*
X033568Y009905D01*
X033505Y009968D01*
X033505Y010095D01*
X032861Y007279D02*
X032798Y007216D01*
X032861Y007279D02*
X032861Y007089D01*
X032798Y007089D02*
X032925Y007089D01*
X032704Y007121D02*
X032704Y007152D01*
X032672Y007184D01*
X032609Y007184D01*
X032577Y007216D01*
X032577Y007247D01*
X032609Y007279D01*
X032672Y007279D01*
X032704Y007247D01*
X032704Y007121D02*
X032672Y007089D01*
X032609Y007089D01*
X032577Y007121D01*
X031895Y013879D02*
X031970Y013954D01*
X031970Y014104D01*
X031895Y014179D01*
X031819Y014179D01*
X031744Y014104D01*
X031744Y013879D01*
X031895Y013879D01*
X031744Y013879D02*
X031594Y014029D01*
X031519Y014179D01*
D11*
X032095Y014554D02*
X032095Y013654D01*
X032195Y013554D01*
X032095Y013454D01*
X032095Y012654D01*
X032195Y012554D01*
X032095Y012454D01*
X032095Y011654D01*
X032195Y011554D01*
X032095Y011454D01*
X032095Y010654D01*
X032195Y010554D01*
X032095Y010454D01*
X032095Y009654D01*
X032195Y009554D01*
X032095Y009454D01*
X032095Y008554D01*
X033095Y008554D01*
X033095Y009454D01*
X032995Y009554D01*
X033095Y009654D01*
X033095Y010454D01*
X032995Y010554D01*
X033095Y010654D01*
X033095Y011454D01*
X032995Y011554D01*
X033095Y011654D01*
X033095Y012454D01*
X032995Y012554D01*
X033095Y012654D01*
X033095Y013454D01*
X032995Y013554D01*
X033095Y013654D01*
X033095Y014554D01*
X032095Y014554D01*
X033460Y014077D02*
X033460Y014033D01*
X033503Y013990D01*
X033590Y013990D01*
X033633Y013947D01*
X033633Y013903D01*
X033590Y013860D01*
X033503Y013860D01*
X033460Y013903D01*
X033460Y014077D02*
X033503Y014120D01*
X033590Y014120D01*
X033633Y014077D01*
X033755Y014120D02*
X033755Y013860D01*
X033841Y013947D01*
X033928Y013860D01*
X033928Y014120D01*
X034049Y014077D02*
X034093Y014120D01*
X034179Y014120D01*
X034223Y014077D01*
X034223Y014033D01*
X034049Y013860D01*
X034223Y013860D01*
X034136Y013170D02*
X034136Y012910D01*
X034049Y012910D02*
X034223Y012910D01*
X034049Y013083D02*
X034136Y013170D01*
X033928Y013170D02*
X033928Y012910D01*
X033841Y012997D01*
X033755Y012910D01*
X033755Y013170D01*
X033633Y013127D02*
X033590Y013170D01*
X033503Y013170D01*
X033460Y013127D01*
X033460Y013083D01*
X033503Y013040D01*
X033590Y013040D01*
X033633Y012997D01*
X033633Y012953D01*
X033590Y012910D01*
X033503Y012910D01*
X033460Y012953D01*
X033503Y012370D02*
X033460Y012327D01*
X033460Y012283D01*
X033503Y012240D01*
X033590Y012240D01*
X033633Y012197D01*
X033633Y012153D01*
X033590Y012110D01*
X033503Y012110D01*
X033460Y012153D01*
X033633Y012327D02*
X033590Y012370D01*
X033503Y012370D01*
X033755Y012327D02*
X033755Y012153D01*
X033798Y012110D01*
X033885Y012110D01*
X033928Y012153D01*
X034049Y012110D02*
X034223Y012110D01*
X034049Y012110D02*
X034049Y012370D01*
X033928Y012327D02*
X033885Y012370D01*
X033798Y012370D01*
X033755Y012327D01*
X031415Y012096D02*
X031415Y011923D01*
X031415Y012010D02*
X031154Y012010D01*
X031241Y011923D01*
X031328Y011802D02*
X031154Y011802D01*
X031154Y011628D02*
X031328Y011628D01*
X031415Y011715D01*
X031328Y011802D01*
X031328Y011507D02*
X031371Y011507D01*
X031415Y011464D01*
X031415Y011377D01*
X031371Y011334D01*
X031284Y011377D02*
X031284Y011464D01*
X031328Y011507D01*
X031198Y011507D02*
X031154Y011464D01*
X031154Y011377D01*
X031198Y011334D01*
X031241Y011334D01*
X031284Y011377D01*
X033510Y011177D02*
X033510Y011133D01*
X033553Y011090D01*
X033640Y011090D01*
X033683Y011047D01*
X033683Y011003D01*
X033640Y010960D01*
X033553Y010960D01*
X033510Y011003D01*
X033805Y010960D02*
X033935Y010960D01*
X033978Y011003D01*
X033978Y011177D01*
X033935Y011220D01*
X033805Y011220D01*
X033805Y010960D01*
X034099Y010960D02*
X034099Y011133D01*
X034186Y011220D01*
X034273Y011133D01*
X034273Y010960D01*
X034273Y011090D02*
X034099Y011090D01*
X033683Y011177D02*
X033640Y011220D01*
X033553Y011220D01*
X033510Y011177D01*
X028683Y013003D02*
X028639Y012960D01*
X028553Y012960D01*
X028509Y013003D01*
X028509Y013090D02*
X028596Y013133D01*
X028639Y013133D01*
X028683Y013090D01*
X028683Y013003D01*
X028509Y013090D02*
X028509Y013220D01*
X028683Y013220D01*
X028301Y013220D02*
X028301Y012960D01*
X028215Y012960D02*
X028388Y012960D01*
X028215Y013133D02*
X028301Y013220D01*
X027799Y013090D02*
X027799Y013003D01*
X027755Y012960D01*
X027625Y012960D01*
X027625Y012873D02*
X027625Y013133D01*
X027755Y013133D01*
X027799Y013090D01*
X027504Y013090D02*
X027461Y013133D01*
X027374Y013133D01*
X027331Y013090D01*
X027331Y013003D01*
X027374Y012960D01*
X027461Y012960D01*
X027504Y013047D02*
X027331Y013047D01*
X027209Y013047D02*
X027209Y013003D01*
X027166Y012960D01*
X027079Y012960D01*
X027036Y013003D01*
X027079Y013090D02*
X027166Y013090D01*
X027209Y013047D01*
X027209Y013177D02*
X027166Y013220D01*
X027079Y013220D01*
X027036Y013177D01*
X027036Y013133D01*
X027079Y013090D01*
X027504Y013090D02*
X027504Y013047D01*
X026620Y013133D02*
X026620Y013177D01*
X026577Y013220D01*
X026490Y013220D01*
X026447Y013177D01*
X026620Y013133D02*
X026447Y012960D01*
X026620Y012960D01*
X026343Y012960D02*
X026299Y012960D01*
X026299Y013003D01*
X026343Y013003D01*
X026343Y012960D01*
X026178Y012960D02*
X026005Y012960D01*
X026091Y012960D02*
X026091Y013220D01*
X026005Y013133D01*
X025883Y013047D02*
X025883Y013220D01*
X025710Y013220D02*
X025710Y013047D01*
X025797Y012960D01*
X025883Y013047D01*
X034360Y008970D02*
X034490Y008970D01*
X034533Y008927D01*
X034533Y008840D01*
X034490Y008797D01*
X034360Y008797D01*
X034447Y008797D02*
X034533Y008710D01*
X034655Y008753D02*
X034655Y008840D01*
X034785Y008840D01*
X034828Y008797D01*
X034828Y008753D01*
X034785Y008710D01*
X034698Y008710D01*
X034655Y008753D01*
X034655Y008840D02*
X034741Y008927D01*
X034828Y008970D01*
X034360Y008970D02*
X034360Y008710D01*
X035460Y008710D02*
X035460Y008970D01*
X035590Y008970D01*
X035633Y008927D01*
X035633Y008840D01*
X035590Y008797D01*
X035460Y008797D01*
X035547Y008797D02*
X035633Y008710D01*
X035755Y008753D02*
X035798Y008710D01*
X035885Y008710D01*
X035928Y008753D01*
X035928Y008840D01*
X035885Y008883D01*
X035841Y008883D01*
X035755Y008840D01*
X035755Y008970D01*
X035928Y008970D01*
X035680Y004990D02*
X034060Y004990D01*
X032680Y004990D01*
X034060Y004990D02*
X034063Y004969D01*
X034069Y004949D01*
X034079Y004931D01*
X034091Y004914D01*
X034107Y004900D01*
X034124Y004889D01*
X034144Y004881D01*
X034164Y004876D01*
X034185Y004875D01*
X034206Y004878D01*
X034226Y004884D01*
X034244Y004894D01*
X034261Y004906D01*
X034275Y004922D01*
X034286Y004939D01*
X034294Y004959D01*
X034299Y004979D01*
X034300Y005000D01*
X031391Y003816D02*
X031391Y003643D01*
X031391Y003730D02*
X031131Y003730D01*
X031217Y003643D01*
X031174Y003522D02*
X031131Y003478D01*
X031131Y003392D01*
X031174Y003348D01*
X031348Y003348D01*
X031391Y003392D01*
X031391Y003478D01*
X031348Y003522D01*
X029050Y003578D02*
X029050Y003405D01*
X028877Y003578D01*
X028833Y003578D01*
X028790Y003535D01*
X028790Y003448D01*
X028833Y003405D01*
X028833Y003283D02*
X028790Y003240D01*
X028790Y003153D01*
X028833Y003110D01*
X029007Y003110D01*
X029050Y003153D01*
X029050Y003240D01*
X029007Y003283D01*
X032680Y000870D02*
X035680Y000870D01*
X032588Y000440D02*
X032415Y000440D01*
X032501Y000440D02*
X032501Y000700D01*
X032415Y000613D01*
X032293Y000700D02*
X032293Y000483D01*
X032250Y000440D01*
X032163Y000440D01*
X032120Y000483D01*
X032120Y000700D01*
X011952Y000445D02*
X011778Y000445D01*
X011865Y000445D02*
X011865Y000706D01*
X011778Y000619D01*
X011657Y000662D02*
X011657Y000576D01*
X011614Y000532D01*
X011484Y000532D01*
X011570Y000532D02*
X011657Y000445D01*
X011484Y000445D02*
X011484Y000706D01*
X011614Y000706D01*
X011657Y000662D01*
X010702Y000669D02*
X010702Y000712D01*
X010658Y000756D01*
X010572Y000756D01*
X010528Y000712D01*
X010407Y000712D02*
X010407Y000626D01*
X010364Y000582D01*
X010234Y000582D01*
X010320Y000582D02*
X010407Y000495D01*
X010528Y000495D02*
X010702Y000669D01*
X010702Y000495D02*
X010528Y000495D01*
X010407Y000712D02*
X010364Y000756D01*
X010234Y000756D01*
X010234Y000495D01*
X007315Y001420D02*
X007054Y001420D01*
X007054Y001334D02*
X007054Y001507D01*
X007141Y001628D02*
X007054Y001715D01*
X007315Y001715D01*
X007315Y001628D02*
X007315Y001802D01*
X005115Y000621D02*
X005115Y000578D01*
X005072Y000535D01*
X005115Y000491D01*
X005115Y000448D01*
X005072Y000405D01*
X004985Y000405D01*
X004942Y000448D01*
X005028Y000535D02*
X005072Y000535D01*
X005115Y000621D02*
X005072Y000665D01*
X004985Y000665D01*
X004942Y000621D01*
X004821Y000621D02*
X004821Y000535D01*
X004777Y000491D01*
X004647Y000491D01*
X004647Y000405D02*
X004647Y000665D01*
X004777Y000665D01*
X004821Y000621D01*
X004734Y000491D02*
X004821Y000405D01*
D12*
X003957Y012685D02*
X003957Y013375D01*
X004302Y013375D01*
X004417Y013260D01*
X004417Y013030D01*
X004302Y012915D01*
X003957Y012915D01*
X003625Y013030D02*
X003625Y013490D01*
X003510Y013606D01*
X003280Y013606D01*
X003165Y013490D01*
X003165Y013030D01*
X003280Y012915D01*
X003510Y012915D01*
X003625Y013030D01*
X004749Y013030D02*
X004749Y013260D01*
X004864Y013375D01*
X005094Y013375D01*
X005209Y013260D01*
X005209Y013145D01*
X004749Y013145D01*
X004749Y013030D02*
X004864Y012915D01*
X005094Y012915D01*
X005541Y012915D02*
X005541Y013375D01*
X005886Y013375D01*
X006001Y013260D01*
X006001Y012915D01*
X006333Y012915D02*
X006793Y012915D01*
X007124Y012915D02*
X007124Y013375D01*
X007470Y013375D01*
X007585Y013260D01*
X007585Y012915D01*
X007916Y013030D02*
X007916Y013260D01*
X008031Y013375D01*
X008262Y013375D01*
X008377Y013260D01*
X008377Y013145D01*
X007916Y013145D01*
X007916Y013030D02*
X008031Y012915D01*
X008262Y012915D01*
X008708Y012915D02*
X008708Y013375D01*
X008708Y013145D02*
X008938Y013375D01*
X009053Y013375D01*
X009368Y013260D02*
X009368Y013030D01*
X009483Y012915D01*
X009828Y012915D01*
X009828Y012800D02*
X009828Y013375D01*
X009483Y013375D01*
X009368Y013260D01*
X010160Y013375D02*
X010160Y013030D01*
X010275Y012915D01*
X010620Y012915D01*
X010620Y012800D02*
X010505Y012685D01*
X010390Y012685D01*
X010620Y012800D02*
X010620Y013375D01*
X010952Y013606D02*
X011182Y013375D01*
X011412Y013606D01*
X011412Y012915D01*
X011744Y013030D02*
X011859Y012915D01*
X012089Y012915D01*
X012204Y013030D01*
X012204Y013260D01*
X012089Y013375D01*
X011859Y013375D01*
X011744Y013260D01*
X011744Y013030D01*
X010952Y012915D02*
X010952Y013606D01*
X012536Y013375D02*
X012536Y012915D01*
X012996Y012915D02*
X012996Y013260D01*
X012881Y013375D01*
X012536Y013375D01*
X013327Y013375D02*
X013443Y013375D01*
X013443Y012915D01*
X013558Y012915D02*
X013327Y012915D01*
X013970Y013030D02*
X014086Y012915D01*
X013970Y013030D02*
X013970Y013490D01*
X013855Y013375D02*
X014086Y013375D01*
X014383Y013260D02*
X014383Y013030D01*
X014498Y012915D01*
X014729Y012915D01*
X014844Y013030D01*
X014844Y013260D01*
X014729Y013375D01*
X014498Y013375D01*
X014383Y013260D01*
X015175Y013145D02*
X015405Y013375D01*
X015520Y013375D01*
X015175Y013375D02*
X015175Y012915D01*
X015835Y012915D02*
X015835Y013030D01*
X015950Y013030D01*
X015950Y012915D01*
X015835Y012915D01*
X016231Y013030D02*
X016346Y012915D01*
X016576Y012915D01*
X016691Y013030D01*
X016691Y013260D01*
X016576Y013375D01*
X016346Y013375D01*
X016231Y013260D01*
X016231Y013030D01*
X017023Y012915D02*
X017023Y013375D01*
X017023Y013145D02*
X017253Y013375D01*
X017368Y013375D01*
X017683Y013260D02*
X017683Y013030D01*
X017798Y012915D01*
X018143Y012915D01*
X018143Y012800D02*
X018028Y012685D01*
X017913Y012685D01*
X018143Y012800D02*
X018143Y013375D01*
X017798Y013375D01*
X017683Y013260D01*
X019465Y013310D02*
X019465Y013080D01*
X019580Y012965D01*
X019810Y012965D01*
X019925Y013195D02*
X019465Y013195D01*
X019465Y013310D02*
X019580Y013425D01*
X019810Y013425D01*
X019925Y013310D01*
X019925Y013195D01*
X020257Y012965D02*
X020257Y013425D01*
X020372Y013425D01*
X020487Y013310D01*
X020602Y013425D01*
X020717Y013310D01*
X020717Y012965D01*
X020487Y012965D02*
X020487Y013310D01*
X021049Y013310D02*
X021049Y013080D01*
X021164Y012965D01*
X021394Y012965D01*
X021509Y013080D01*
X021509Y013310D01*
X021394Y013425D01*
X021164Y013425D01*
X021049Y013310D01*
X021841Y013425D02*
X021841Y012965D01*
X022301Y012965D02*
X022301Y013310D01*
X022186Y013425D01*
X021841Y013425D01*
X022633Y013195D02*
X022978Y013195D01*
X023093Y013310D01*
X023093Y013540D01*
X022978Y013656D01*
X022633Y013656D01*
X022633Y012965D01*
X023424Y012965D02*
X023655Y012965D01*
X023539Y012965D02*
X023539Y013425D01*
X023424Y013425D01*
X023539Y013656D02*
X023539Y013771D01*
X023952Y013540D02*
X024067Y013656D01*
X024298Y013656D01*
X024413Y013540D01*
X024413Y013425D01*
X023952Y012965D01*
X024413Y012965D01*
X024744Y013080D02*
X024859Y012965D01*
X025089Y012965D01*
X025205Y013080D01*
X024744Y013080D02*
X024744Y013540D01*
X024859Y013656D01*
X025089Y013656D01*
X025205Y013540D01*
X013443Y013606D02*
X013443Y013721D01*
X009828Y012800D02*
X009713Y012685D01*
X009598Y012685D01*
X006793Y013606D02*
X006333Y013606D01*
X006333Y012915D01*
X006333Y013260D02*
X006563Y013260D01*
D13*
X032085Y005257D02*
X032399Y004943D01*
X032242Y004943D02*
X032242Y005257D01*
X032399Y005257D02*
X032085Y004943D01*
X032085Y005100D02*
X032399Y005100D01*
D14*
X033952Y006114D02*
X035652Y006114D01*
X036002Y006914D02*
X036002Y007707D01*
X034102Y007314D02*
X034104Y007366D01*
X034110Y007418D01*
X034120Y007470D01*
X034133Y007520D01*
X034150Y007570D01*
X034171Y007618D01*
X034196Y007664D01*
X034224Y007708D01*
X034255Y007750D01*
X034289Y007790D01*
X034326Y007827D01*
X034366Y007861D01*
X034408Y007892D01*
X034452Y007920D01*
X034498Y007945D01*
X034546Y007966D01*
X034596Y007983D01*
X034646Y007996D01*
X034698Y008006D01*
X034750Y008012D01*
X034802Y008014D01*
X034854Y008012D01*
X034906Y008006D01*
X034958Y007996D01*
X035008Y007983D01*
X035058Y007966D01*
X035106Y007945D01*
X035152Y007920D01*
X035196Y007892D01*
X035238Y007861D01*
X035278Y007827D01*
X035315Y007790D01*
X035349Y007750D01*
X035380Y007708D01*
X035408Y007664D01*
X035433Y007618D01*
X035454Y007570D01*
X035471Y007520D01*
X035484Y007470D01*
X035494Y007418D01*
X035500Y007366D01*
X035502Y007314D01*
X035500Y007262D01*
X035494Y007210D01*
X035484Y007158D01*
X035471Y007108D01*
X035454Y007058D01*
X035433Y007010D01*
X035408Y006964D01*
X035380Y006920D01*
X035349Y006878D01*
X035315Y006838D01*
X035278Y006801D01*
X035238Y006767D01*
X035196Y006736D01*
X035152Y006708D01*
X035106Y006683D01*
X035058Y006662D01*
X035008Y006645D01*
X034958Y006632D01*
X034906Y006622D01*
X034854Y006616D01*
X034802Y006614D01*
X034750Y006616D01*
X034698Y006622D01*
X034646Y006632D01*
X034596Y006645D01*
X034546Y006662D01*
X034498Y006683D01*
X034452Y006708D01*
X034408Y006736D01*
X034366Y006767D01*
X034326Y006801D01*
X034289Y006838D01*
X034255Y006878D01*
X034224Y006920D01*
X034196Y006964D01*
X034171Y007010D01*
X034150Y007058D01*
X034133Y007108D01*
X034120Y007158D01*
X034110Y007210D01*
X034104Y007262D01*
X034102Y007314D01*
X033602Y006914D02*
X033602Y007719D01*
X033952Y008514D02*
X035652Y008514D01*
M02*
