G75*
%MOIN*%
%OFA0B0*%
%FSLAX24Y24*%
%IPPOS*%
%LPD*%
%AMOC8*
5,1,8,0,0,1.08239X$1,22.5*
%
%ADD10C,0.0010*%
%ADD11R,0.0900X0.0220*%
%ADD12C,0.0515*%
%ADD13C,0.0000*%
%ADD14R,0.0551X0.0394*%
%ADD15R,0.0433X0.0394*%
%ADD16OC8,0.0520*%
%ADD17C,0.0740*%
%ADD18R,0.0394X0.0433*%
%ADD19C,0.0520*%
%ADD20C,0.0240*%
%ADD21C,0.0357*%
%ADD22C,0.0100*%
%ADD23C,0.0160*%
D10*
X000180Y000180D02*
X000180Y014430D01*
X036680Y014430D01*
X036680Y000180D01*
X000180Y000180D01*
D11*
X032400Y001180D03*
X032400Y001680D03*
X032400Y002180D03*
X032400Y002680D03*
X032400Y003180D03*
X032400Y003680D03*
X032400Y004180D03*
X032400Y004680D03*
X035960Y004680D03*
X035960Y004180D03*
X035960Y003680D03*
X035960Y003180D03*
X035960Y002680D03*
X035960Y002180D03*
X035960Y001680D03*
X035960Y001180D03*
D12*
X028507Y000964D02*
X028507Y001479D01*
X027507Y001479D02*
X027507Y000964D01*
X026507Y000964D02*
X026507Y001479D01*
X025507Y001479D02*
X025507Y000964D01*
X024507Y000964D02*
X024507Y001479D01*
X023507Y001479D02*
X023507Y000964D01*
X022507Y000964D02*
X022507Y001479D01*
X021507Y001479D02*
X021507Y000964D01*
X020507Y000964D02*
X020507Y001479D01*
X019507Y001479D02*
X019507Y000964D01*
X018507Y000964D02*
X018507Y001479D01*
X017507Y001479D02*
X017507Y000964D01*
X016507Y000964D02*
X016507Y001479D01*
X015507Y001479D02*
X015507Y000964D01*
X014507Y000964D02*
X014507Y001479D01*
X013507Y001479D02*
X013507Y000964D01*
D13*
X000609Y001221D02*
X000611Y001268D01*
X000617Y001314D01*
X000627Y001360D01*
X000640Y001405D01*
X000658Y001448D01*
X000679Y001490D01*
X000703Y001530D01*
X000731Y001567D01*
X000762Y001602D01*
X000796Y001635D01*
X000832Y001664D01*
X000871Y001690D01*
X000912Y001713D01*
X000955Y001732D01*
X000999Y001748D01*
X001044Y001760D01*
X001090Y001768D01*
X001137Y001772D01*
X001183Y001772D01*
X001230Y001768D01*
X001276Y001760D01*
X001321Y001748D01*
X001365Y001732D01*
X001408Y001713D01*
X001449Y001690D01*
X001488Y001664D01*
X001524Y001635D01*
X001558Y001602D01*
X001589Y001567D01*
X001617Y001530D01*
X001641Y001490D01*
X001662Y001448D01*
X001680Y001405D01*
X001693Y001360D01*
X001703Y001314D01*
X001709Y001268D01*
X001711Y001221D01*
X001709Y001174D01*
X001703Y001128D01*
X001693Y001082D01*
X001680Y001037D01*
X001662Y000994D01*
X001641Y000952D01*
X001617Y000912D01*
X001589Y000875D01*
X001558Y000840D01*
X001524Y000807D01*
X001488Y000778D01*
X001449Y000752D01*
X001408Y000729D01*
X001365Y000710D01*
X001321Y000694D01*
X001276Y000682D01*
X001230Y000674D01*
X001183Y000670D01*
X001137Y000670D01*
X001090Y000674D01*
X001044Y000682D01*
X000999Y000694D01*
X000955Y000710D01*
X000912Y000729D01*
X000871Y000752D01*
X000832Y000778D01*
X000796Y000807D01*
X000762Y000840D01*
X000731Y000875D01*
X000703Y000912D01*
X000679Y000952D01*
X000658Y000994D01*
X000640Y001037D01*
X000627Y001082D01*
X000617Y001128D01*
X000611Y001174D01*
X000609Y001221D01*
X000609Y013395D02*
X000611Y013442D01*
X000617Y013488D01*
X000627Y013534D01*
X000640Y013579D01*
X000658Y013622D01*
X000679Y013664D01*
X000703Y013704D01*
X000731Y013741D01*
X000762Y013776D01*
X000796Y013809D01*
X000832Y013838D01*
X000871Y013864D01*
X000912Y013887D01*
X000955Y013906D01*
X000999Y013922D01*
X001044Y013934D01*
X001090Y013942D01*
X001137Y013946D01*
X001183Y013946D01*
X001230Y013942D01*
X001276Y013934D01*
X001321Y013922D01*
X001365Y013906D01*
X001408Y013887D01*
X001449Y013864D01*
X001488Y013838D01*
X001524Y013809D01*
X001558Y013776D01*
X001589Y013741D01*
X001617Y013704D01*
X001641Y013664D01*
X001662Y013622D01*
X001680Y013579D01*
X001693Y013534D01*
X001703Y013488D01*
X001709Y013442D01*
X001711Y013395D01*
X001709Y013348D01*
X001703Y013302D01*
X001693Y013256D01*
X001680Y013211D01*
X001662Y013168D01*
X001641Y013126D01*
X001617Y013086D01*
X001589Y013049D01*
X001558Y013014D01*
X001524Y012981D01*
X001488Y012952D01*
X001449Y012926D01*
X001408Y012903D01*
X001365Y012884D01*
X001321Y012868D01*
X001276Y012856D01*
X001230Y012848D01*
X001183Y012844D01*
X001137Y012844D01*
X001090Y012848D01*
X001044Y012856D01*
X000999Y012868D01*
X000955Y012884D01*
X000912Y012903D01*
X000871Y012926D01*
X000832Y012952D01*
X000796Y012981D01*
X000762Y013014D01*
X000731Y013049D01*
X000703Y013086D01*
X000679Y013126D01*
X000658Y013168D01*
X000640Y013211D01*
X000627Y013256D01*
X000617Y013302D01*
X000611Y013348D01*
X000609Y013395D01*
X030105Y013395D02*
X030107Y013442D01*
X030113Y013488D01*
X030123Y013534D01*
X030136Y013579D01*
X030154Y013622D01*
X030175Y013664D01*
X030199Y013704D01*
X030227Y013741D01*
X030258Y013776D01*
X030292Y013809D01*
X030328Y013838D01*
X030367Y013864D01*
X030408Y013887D01*
X030451Y013906D01*
X030495Y013922D01*
X030540Y013934D01*
X030586Y013942D01*
X030633Y013946D01*
X030679Y013946D01*
X030726Y013942D01*
X030772Y013934D01*
X030817Y013922D01*
X030861Y013906D01*
X030904Y013887D01*
X030945Y013864D01*
X030984Y013838D01*
X031020Y013809D01*
X031054Y013776D01*
X031085Y013741D01*
X031113Y013704D01*
X031137Y013664D01*
X031158Y013622D01*
X031176Y013579D01*
X031189Y013534D01*
X031199Y013488D01*
X031205Y013442D01*
X031207Y013395D01*
X031205Y013348D01*
X031199Y013302D01*
X031189Y013256D01*
X031176Y013211D01*
X031158Y013168D01*
X031137Y013126D01*
X031113Y013086D01*
X031085Y013049D01*
X031054Y013014D01*
X031020Y012981D01*
X030984Y012952D01*
X030945Y012926D01*
X030904Y012903D01*
X030861Y012884D01*
X030817Y012868D01*
X030772Y012856D01*
X030726Y012848D01*
X030679Y012844D01*
X030633Y012844D01*
X030586Y012848D01*
X030540Y012856D01*
X030495Y012868D01*
X030451Y012884D01*
X030408Y012903D01*
X030367Y012926D01*
X030328Y012952D01*
X030292Y012981D01*
X030258Y013014D01*
X030227Y013049D01*
X030199Y013086D01*
X030175Y013126D01*
X030154Y013168D01*
X030136Y013211D01*
X030123Y013256D01*
X030113Y013302D01*
X030107Y013348D01*
X030105Y013395D01*
X030105Y001221D02*
X030107Y001268D01*
X030113Y001314D01*
X030123Y001360D01*
X030136Y001405D01*
X030154Y001448D01*
X030175Y001490D01*
X030199Y001530D01*
X030227Y001567D01*
X030258Y001602D01*
X030292Y001635D01*
X030328Y001664D01*
X030367Y001690D01*
X030408Y001713D01*
X030451Y001732D01*
X030495Y001748D01*
X030540Y001760D01*
X030586Y001768D01*
X030633Y001772D01*
X030679Y001772D01*
X030726Y001768D01*
X030772Y001760D01*
X030817Y001748D01*
X030861Y001732D01*
X030904Y001713D01*
X030945Y001690D01*
X030984Y001664D01*
X031020Y001635D01*
X031054Y001602D01*
X031085Y001567D01*
X031113Y001530D01*
X031137Y001490D01*
X031158Y001448D01*
X031176Y001405D01*
X031189Y001360D01*
X031199Y001314D01*
X031205Y001268D01*
X031207Y001221D01*
X031205Y001174D01*
X031199Y001128D01*
X031189Y001082D01*
X031176Y001037D01*
X031158Y000994D01*
X031137Y000952D01*
X031113Y000912D01*
X031085Y000875D01*
X031054Y000840D01*
X031020Y000807D01*
X030984Y000778D01*
X030945Y000752D01*
X030904Y000729D01*
X030861Y000710D01*
X030817Y000694D01*
X030772Y000682D01*
X030726Y000674D01*
X030679Y000670D01*
X030633Y000670D01*
X030586Y000674D01*
X030540Y000682D01*
X030495Y000694D01*
X030451Y000710D01*
X030408Y000729D01*
X030367Y000752D01*
X030328Y000778D01*
X030292Y000807D01*
X030258Y000840D01*
X030227Y000875D01*
X030199Y000912D01*
X030175Y000952D01*
X030154Y000994D01*
X030136Y001037D01*
X030123Y001082D01*
X030113Y001128D01*
X030107Y001174D01*
X030105Y001221D01*
D14*
X006628Y001080D03*
X005761Y001454D03*
X006628Y001828D03*
D15*
X004845Y001788D03*
X004845Y001119D03*
X010465Y001072D03*
X011715Y001072D03*
X011715Y001741D03*
X010465Y001741D03*
X034680Y009345D03*
X035680Y009345D03*
X035680Y010015D03*
X034680Y010015D03*
D16*
X033930Y011680D03*
X035930Y011680D03*
X034930Y012680D03*
D17*
X036082Y008204D03*
X033522Y008204D03*
X033522Y006424D03*
X036082Y006424D03*
D18*
X030680Y003515D03*
X029680Y003515D03*
X029680Y002845D03*
X030680Y002845D03*
D19*
X032335Y009054D02*
X032855Y009054D01*
X032855Y010054D02*
X032335Y010054D01*
X032335Y011054D02*
X032855Y011054D01*
X032855Y012054D02*
X032335Y012054D01*
X032335Y013054D02*
X032855Y013054D01*
X032855Y014054D02*
X032335Y014054D01*
D20*
X035830Y011680D02*
X035930Y011680D01*
X033030Y010130D02*
X032980Y010080D01*
X033180Y009880D01*
X033180Y009680D01*
X034480Y008380D01*
X034480Y008180D01*
X034480Y006730D01*
X034805Y006405D01*
X033880Y005480D01*
X031830Y005480D01*
X031430Y005080D01*
X031430Y005030D01*
X030630Y004230D01*
X030630Y003980D01*
X030680Y003930D01*
X030680Y003515D01*
X030680Y003530D01*
X030380Y003530D01*
X030280Y003630D01*
X030080Y003630D01*
X029980Y003530D01*
X029680Y003530D01*
X029680Y003515D01*
X029580Y003530D01*
X029380Y003530D01*
X029280Y003630D01*
X029080Y003630D01*
X027980Y002530D01*
X027880Y002580D01*
X025180Y005280D01*
X017130Y005280D01*
X014005Y002155D01*
X014480Y001680D01*
X014480Y001230D01*
X014507Y001221D01*
X014005Y002155D02*
X013880Y002280D01*
X013080Y002280D01*
X013030Y002380D01*
X013030Y003080D01*
X011730Y004380D01*
X013080Y002280D02*
X011880Y001080D01*
X011830Y001080D01*
X011715Y001072D01*
X010465Y001072D01*
X010380Y001080D01*
X007415Y000580D02*
X007180Y000580D01*
X003580Y000580D01*
X002880Y001280D01*
X002880Y003080D01*
X007380Y007580D01*
X018280Y007580D01*
X027680Y007580D02*
X031780Y007580D01*
X034805Y006405D02*
X035830Y005380D01*
X035830Y004880D01*
X035930Y004780D01*
X035930Y004680D01*
X035960Y004680D01*
X027980Y002530D02*
X027980Y002180D01*
X027480Y001680D01*
X027480Y001230D01*
X027507Y001221D01*
X032595Y010054D02*
X032630Y010080D01*
X032980Y010080D01*
X005280Y002280D02*
X004880Y001880D01*
X004880Y001830D01*
X004845Y001788D01*
D21*
X005880Y001930D03*
X005280Y002280D03*
X002980Y000880D03*
X007680Y000580D03*
X009380Y001380D03*
X011930Y002230D03*
X012330Y003130D03*
X011730Y004380D03*
X014280Y005380D03*
X016580Y005380D03*
X016830Y006630D03*
X018280Y007580D03*
X015280Y008780D03*
X010780Y006080D03*
X009030Y006030D03*
X006080Y006880D03*
X002480Y006680D03*
X006180Y010280D03*
X023780Y008380D03*
X027680Y007580D03*
X030980Y006280D03*
X032680Y006580D03*
X033980Y007080D03*
X032280Y007930D03*
X031780Y007580D03*
X034180Y009580D03*
X030380Y010680D03*
X030380Y011580D03*
X029280Y012580D03*
X031780Y013480D03*
X029480Y013880D03*
X034380Y013480D03*
X028980Y009580D03*
X034530Y005380D03*
X034180Y005080D03*
X035180Y004180D03*
X034780Y003680D03*
X033780Y003330D03*
X033280Y003330D03*
X033280Y002830D03*
X033130Y002380D03*
X033130Y001880D03*
X031630Y002580D03*
X031180Y002880D03*
X031630Y003080D03*
X033730Y003880D03*
X029580Y002080D03*
X027180Y002630D03*
X023980Y004180D03*
X025030Y004780D03*
X029480Y000680D03*
X033080Y000580D03*
D22*
X032400Y001180D02*
X031880Y001180D01*
X031480Y001580D01*
X031480Y001780D01*
X030630Y002630D01*
X029280Y001280D01*
X028565Y001280D01*
X028507Y001221D01*
X028480Y001195D01*
X028480Y000580D01*
X028380Y000480D01*
X007780Y000480D01*
X007680Y000580D01*
X007580Y000680D01*
X007580Y001380D01*
X007180Y001780D01*
X006675Y001780D01*
X006628Y001828D01*
X005880Y001930D02*
X005780Y001830D01*
X005780Y001480D01*
X005761Y001454D01*
X005380Y000980D02*
X005241Y001119D01*
X004845Y001119D01*
X004830Y001080D01*
X004430Y001080D01*
X004130Y001380D01*
X004130Y002180D01*
X008580Y006630D01*
X016830Y006630D01*
X016580Y005380D02*
X014280Y005380D01*
X010780Y006080D02*
X026730Y006080D01*
X026880Y005930D01*
X031480Y005930D01*
X032630Y007080D01*
X033030Y007080D01*
X033180Y007230D01*
X033830Y007230D01*
X033980Y007080D01*
X032780Y007580D02*
X032780Y008180D01*
X032580Y008380D01*
X032280Y008380D01*
X031780Y008880D01*
X031780Y010280D01*
X032080Y010580D01*
X033380Y010580D01*
X033980Y009980D01*
X034580Y009980D01*
X034615Y010015D01*
X034680Y010015D01*
X035680Y010015D01*
X034680Y010015D02*
X034680Y012430D01*
X034930Y012680D01*
X032595Y013054D02*
X032580Y013030D01*
X032330Y013030D01*
X031580Y012280D01*
X031580Y008630D01*
X032280Y007930D01*
X032780Y007580D02*
X031480Y006280D01*
X030980Y006280D01*
X031580Y005730D02*
X032430Y006580D01*
X032680Y006580D01*
X031580Y005730D02*
X010630Y005730D01*
X010330Y006030D01*
X009030Y006030D01*
X012080Y003130D02*
X012330Y003130D01*
X012080Y003130D02*
X011080Y002130D01*
X011080Y002080D01*
X010780Y001780D01*
X010480Y001780D01*
X010465Y001741D01*
X011715Y001741D02*
X011730Y001780D01*
X011730Y002030D01*
X011930Y002230D01*
X007680Y000580D02*
X007180Y000580D01*
X006628Y001080D02*
X006528Y000980D01*
X005380Y000980D01*
X023980Y004180D02*
X026507Y001653D01*
X026507Y001221D01*
X027180Y002630D02*
X025030Y004780D01*
X029680Y002845D02*
X030680Y002845D01*
X030680Y002680D01*
X030630Y002630D01*
X031180Y002880D02*
X031280Y002980D01*
X031280Y003230D01*
X031680Y003630D01*
X031880Y003630D01*
X031980Y003730D01*
X032330Y003730D01*
X032380Y003680D01*
X032400Y003680D01*
X032480Y004130D02*
X032430Y004180D01*
X032400Y004180D01*
X032480Y004130D02*
X032830Y004130D01*
X032930Y004230D01*
X033830Y004230D01*
X034530Y004930D01*
X034530Y005380D01*
X034180Y005080D02*
X033380Y005080D01*
X033030Y004730D01*
X032930Y004730D01*
X032830Y004630D01*
X032480Y004630D01*
X032430Y004680D01*
X032400Y004680D01*
X033730Y003880D02*
X034880Y002730D01*
X035230Y002730D01*
X035280Y002680D01*
X035960Y002680D01*
X035960Y002180D02*
X035280Y002180D01*
X035230Y002230D01*
X034880Y002230D01*
X033780Y003330D01*
X033280Y003330D02*
X034880Y001730D01*
X035230Y001730D01*
X035280Y001680D01*
X035960Y001680D01*
X035960Y001180D02*
X035480Y001180D01*
X035430Y001130D01*
X034980Y001130D01*
X033280Y002830D01*
X032400Y002680D02*
X031730Y002680D01*
X031630Y002580D01*
X031630Y003080D02*
X031730Y003180D01*
X032400Y003180D01*
X033130Y002380D02*
X032930Y002180D01*
X032400Y002180D01*
X032980Y001730D02*
X033130Y001880D01*
X032980Y001730D02*
X032930Y001730D01*
X032880Y001680D01*
X032400Y001680D01*
X034780Y003680D02*
X035960Y003680D01*
X035480Y004180D02*
X035430Y004130D01*
X035230Y004130D01*
X035180Y004180D01*
X035480Y004180D02*
X035960Y004180D01*
X034480Y008180D02*
X035645Y009345D01*
X035680Y009345D01*
X035745Y009280D01*
X035980Y009280D01*
X036280Y009580D01*
X036280Y010780D01*
X035930Y011130D01*
X035930Y011680D01*
X034180Y009580D02*
X034415Y009345D01*
X034680Y009345D01*
X030380Y010680D02*
X030380Y011580D01*
D23*
X030707Y011434D02*
X031350Y011434D01*
X031350Y011592D02*
X030738Y011592D01*
X030738Y011651D02*
X030738Y011509D01*
X030684Y011377D01*
X030610Y011303D01*
X030610Y010957D01*
X030684Y010883D01*
X030738Y010751D01*
X030738Y010609D01*
X030684Y010477D01*
X030583Y010376D01*
X030451Y010322D01*
X030309Y010322D01*
X030177Y010376D01*
X030076Y010477D01*
X030022Y010609D01*
X030022Y010751D01*
X030076Y010883D01*
X030150Y010957D01*
X030150Y011303D01*
X030076Y011377D01*
X030022Y011509D01*
X030022Y011651D01*
X030076Y011783D01*
X030177Y011884D01*
X030309Y011938D01*
X030451Y011938D01*
X030583Y011884D01*
X030684Y011783D01*
X030738Y011651D01*
X030697Y011751D02*
X031350Y011751D01*
X031350Y011909D02*
X030522Y011909D01*
X030238Y011909D02*
X000365Y011909D01*
X000365Y011751D02*
X030063Y011751D01*
X030022Y011592D02*
X000365Y011592D01*
X000365Y011434D02*
X030053Y011434D01*
X030150Y011275D02*
X000365Y011275D01*
X000365Y011117D02*
X030150Y011117D01*
X030150Y010958D02*
X000365Y010958D01*
X000365Y010800D02*
X030042Y010800D01*
X030022Y010641D02*
X000365Y010641D01*
X000365Y010483D02*
X030074Y010483D01*
X030303Y010324D02*
X000365Y010324D01*
X000365Y010166D02*
X031350Y010166D01*
X031350Y010324D02*
X030457Y010324D01*
X030686Y010483D02*
X031350Y010483D01*
X031350Y010641D02*
X030738Y010641D01*
X030718Y010800D02*
X031350Y010800D01*
X031350Y010958D02*
X030610Y010958D01*
X030610Y011117D02*
X031350Y011117D01*
X031350Y011275D02*
X030610Y011275D01*
X031810Y011275D02*
X031950Y011275D01*
X031962Y011303D02*
X031895Y011141D01*
X031895Y010966D01*
X031962Y010804D01*
X031970Y010796D01*
X031810Y010635D01*
X031810Y012185D01*
X032241Y012616D01*
X032247Y012614D01*
X032942Y012614D01*
X033104Y012681D01*
X033228Y012804D01*
X033295Y012966D01*
X033295Y013141D01*
X033228Y013303D01*
X033104Y013427D01*
X032942Y013494D01*
X032247Y013494D01*
X032085Y013427D01*
X031962Y013303D01*
X031895Y013141D01*
X031895Y012966D01*
X031908Y012933D01*
X031485Y012510D01*
X031350Y012375D01*
X031350Y008535D01*
X031922Y007963D01*
X031922Y007859D01*
X031976Y007727D01*
X032077Y007626D01*
X032209Y007572D01*
X032351Y007572D01*
X032483Y007626D01*
X032550Y007693D01*
X032550Y007675D01*
X031385Y006510D01*
X031257Y006510D01*
X031183Y006584D01*
X031051Y006638D01*
X030909Y006638D01*
X030777Y006584D01*
X030676Y006483D01*
X030622Y006351D01*
X030622Y006209D01*
X030642Y006160D01*
X026975Y006160D01*
X026825Y006310D01*
X016994Y006310D01*
X017033Y006326D01*
X017134Y006427D01*
X017188Y006559D01*
X017188Y006701D01*
X017134Y006833D01*
X017033Y006934D01*
X016901Y006988D01*
X016759Y006988D01*
X016627Y006934D01*
X016553Y006860D01*
X008485Y006860D01*
X004035Y002410D01*
X003900Y002275D01*
X003900Y001285D01*
X004200Y000985D01*
X004335Y000850D01*
X004448Y000850D01*
X004448Y000848D01*
X004553Y000742D01*
X005136Y000742D01*
X005214Y000821D01*
X005285Y000750D01*
X006230Y000750D01*
X006277Y000703D01*
X006978Y000703D01*
X007083Y000808D01*
X007083Y001351D01*
X007016Y001418D01*
X007017Y001418D01*
X007056Y001444D01*
X007090Y001478D01*
X007116Y001517D01*
X007134Y001561D01*
X007143Y001607D01*
X007143Y001809D01*
X006646Y001809D01*
X006646Y001846D01*
X006609Y001846D01*
X006609Y002264D01*
X006328Y002264D01*
X006282Y002255D01*
X006238Y002237D01*
X006199Y002211D01*
X006166Y002177D01*
X006155Y002162D01*
X006083Y002234D01*
X005951Y002288D01*
X005809Y002288D01*
X005698Y002243D01*
X005698Y002363D01*
X005635Y002517D01*
X005517Y002635D01*
X005363Y002698D01*
X005197Y002698D01*
X005043Y002635D01*
X004925Y002517D01*
X004867Y002376D01*
X004716Y002225D01*
X004580Y002225D01*
X004492Y002189D01*
X004425Y002121D01*
X004388Y002033D01*
X004388Y001544D01*
X004425Y001455D01*
X004469Y001411D01*
X004448Y001390D01*
X004448Y001387D01*
X004360Y001475D01*
X004360Y002085D01*
X008675Y006400D01*
X010616Y006400D01*
X010577Y006384D01*
X010476Y006283D01*
X010454Y006231D01*
X010425Y006260D01*
X009307Y006260D01*
X009233Y006334D01*
X009101Y006388D01*
X008959Y006388D01*
X008827Y006334D01*
X008726Y006233D01*
X008672Y006101D01*
X008672Y005959D01*
X008726Y005827D01*
X008827Y005726D01*
X008959Y005672D01*
X009101Y005672D01*
X009233Y005726D01*
X009307Y005800D01*
X010235Y005800D01*
X010400Y005635D01*
X010535Y005500D01*
X013942Y005500D01*
X013922Y005451D01*
X013922Y005309D01*
X013976Y005177D01*
X014077Y005076D01*
X014209Y005022D01*
X014351Y005022D01*
X014483Y005076D01*
X014557Y005150D01*
X016303Y005150D01*
X016377Y005076D01*
X016405Y005064D01*
X013972Y002631D01*
X013952Y002640D01*
X013390Y002640D01*
X013390Y003152D01*
X013335Y003284D01*
X012143Y004476D01*
X012085Y004617D01*
X011967Y004735D01*
X011813Y004798D01*
X011647Y004798D01*
X011493Y004735D01*
X011375Y004617D01*
X011312Y004463D01*
X011312Y004297D01*
X011375Y004143D01*
X011493Y004025D01*
X011634Y003967D01*
X012155Y003446D01*
X012127Y003434D01*
X012053Y003360D01*
X011985Y003360D01*
X011850Y003225D01*
X010850Y002225D01*
X010850Y002175D01*
X010775Y002100D01*
X010757Y002118D01*
X010174Y002118D01*
X010069Y002012D01*
X010069Y001470D01*
X010090Y001449D01*
X010045Y001405D01*
X010009Y001316D01*
X010009Y000827D01*
X010045Y000739D01*
X010113Y000671D01*
X010201Y000635D01*
X010730Y000635D01*
X010818Y000671D01*
X010858Y000712D01*
X011323Y000712D01*
X011363Y000671D01*
X011451Y000635D01*
X011980Y000635D01*
X012068Y000671D01*
X012135Y000739D01*
X012172Y000827D01*
X012172Y000863D01*
X012185Y000876D01*
X013229Y001920D01*
X013731Y001920D01*
X014028Y001623D01*
X014009Y001578D01*
X014009Y000865D01*
X014085Y000682D01*
X014225Y000542D01*
X014408Y000466D01*
X014606Y000466D01*
X014789Y000542D01*
X014929Y000682D01*
X015004Y000865D01*
X015004Y001578D01*
X014929Y001761D01*
X014789Y001901D01*
X014754Y001915D01*
X014514Y002155D01*
X017279Y004920D01*
X024700Y004920D01*
X024672Y004851D01*
X024672Y004709D01*
X024726Y004577D01*
X024827Y004476D01*
X024959Y004422D01*
X025063Y004422D01*
X026822Y002663D01*
X026822Y002559D01*
X026876Y002427D01*
X026977Y002326D01*
X027109Y002272D01*
X027251Y002272D01*
X027383Y002326D01*
X027484Y002427D01*
X027496Y002455D01*
X027616Y002334D01*
X027620Y002330D01*
X027620Y002329D01*
X027276Y001985D01*
X027175Y001884D01*
X027151Y001827D01*
X027085Y001761D01*
X027009Y001578D01*
X027009Y000865D01*
X027085Y000682D01*
X027225Y000542D01*
X027408Y000466D01*
X027606Y000466D01*
X027789Y000542D01*
X027929Y000682D01*
X028004Y000865D01*
X028004Y001578D01*
X027970Y001661D01*
X028285Y001976D01*
X028340Y002108D01*
X028340Y002381D01*
X029182Y003223D01*
X029270Y003186D01*
X029273Y003179D01*
X029270Y003176D01*
X029252Y003132D01*
X029243Y003086D01*
X029243Y002864D01*
X029662Y002864D01*
X029662Y002827D01*
X029698Y002827D01*
X029698Y002389D01*
X029900Y002389D01*
X029947Y002398D01*
X029991Y002416D01*
X030030Y002442D01*
X030063Y002476D01*
X030090Y002515D01*
X030108Y002559D01*
X030117Y002605D01*
X030117Y002827D01*
X029698Y002827D01*
X029698Y002864D01*
X030117Y002864D01*
X030117Y003086D01*
X030108Y003132D01*
X030090Y003176D01*
X030087Y003179D01*
X030090Y003186D01*
X030180Y003223D01*
X030270Y003186D01*
X030273Y003179D01*
X030270Y003176D01*
X030252Y003132D01*
X030243Y003086D01*
X030243Y002864D01*
X030662Y002864D01*
X030662Y002827D01*
X030698Y002827D01*
X030698Y002389D01*
X030900Y002389D01*
X030947Y002398D01*
X030991Y002416D01*
X031030Y002442D01*
X031063Y002476D01*
X031090Y002515D01*
X031095Y002527D01*
X031109Y002522D01*
X031251Y002522D01*
X031272Y002530D01*
X031272Y002509D01*
X031326Y002377D01*
X031427Y002276D01*
X031559Y002222D01*
X031701Y002222D01*
X031770Y002250D01*
X031770Y001995D01*
X031835Y001930D01*
X031770Y001865D01*
X031770Y001495D01*
X031793Y001472D01*
X031764Y001443D01*
X031737Y001404D01*
X031719Y001360D01*
X031710Y001314D01*
X031710Y001180D01*
X032400Y001180D01*
X033090Y001180D01*
X033090Y001314D01*
X033081Y001360D01*
X033063Y001404D01*
X033036Y001443D01*
X033007Y001472D01*
X033030Y001495D01*
X033030Y001500D01*
X033075Y001500D01*
X033097Y001522D01*
X033201Y001522D01*
X033333Y001576D01*
X033434Y001677D01*
X033488Y001809D01*
X033488Y001951D01*
X033434Y002083D01*
X033387Y002130D01*
X033434Y002177D01*
X033485Y002300D01*
X034885Y000900D01*
X035425Y000900D01*
X035435Y000890D01*
X036485Y000890D01*
X036495Y000900D01*
X036495Y000365D01*
X000365Y000365D01*
X000365Y014245D01*
X031938Y014245D01*
X031895Y014141D01*
X031895Y013966D01*
X031962Y013804D01*
X032085Y013681D01*
X032247Y013614D01*
X032942Y013614D01*
X033104Y013681D01*
X033228Y013804D01*
X033295Y013966D01*
X033295Y014141D01*
X033252Y014245D01*
X036495Y014245D01*
X036495Y010975D01*
X036444Y011026D01*
X036220Y011250D01*
X036220Y011263D01*
X036430Y011473D01*
X036430Y011887D01*
X036137Y012180D01*
X035723Y012180D01*
X035430Y011887D01*
X035430Y011473D01*
X035640Y011263D01*
X035640Y011072D01*
X035684Y010966D01*
X035990Y010660D01*
X035990Y010373D01*
X035971Y010391D01*
X035389Y010391D01*
X035283Y010286D01*
X035283Y010245D01*
X035077Y010245D01*
X035077Y010286D01*
X034971Y010391D01*
X034910Y010391D01*
X034910Y012240D01*
X035112Y012240D01*
X035370Y012498D01*
X035370Y012862D01*
X035112Y013120D01*
X034748Y013120D01*
X034490Y012862D01*
X034490Y012565D01*
X034450Y012525D01*
X034450Y010391D01*
X034389Y010391D01*
X034283Y010286D01*
X034283Y010210D01*
X034075Y010210D01*
X033475Y010810D01*
X033230Y010810D01*
X033295Y010966D01*
X033295Y011141D01*
X033228Y011303D01*
X033104Y011427D01*
X032942Y011494D01*
X032247Y011494D01*
X032085Y011427D01*
X031962Y011303D01*
X032102Y011434D02*
X031810Y011434D01*
X031810Y011592D02*
X033430Y011592D01*
X033430Y011680D02*
X033430Y011473D01*
X033723Y011180D01*
X033930Y011180D01*
X034137Y011180D01*
X034430Y011473D01*
X034430Y011680D01*
X034430Y011887D01*
X034137Y012180D01*
X033930Y012180D01*
X033930Y011680D01*
X034430Y011680D01*
X033930Y011680D01*
X033930Y011680D01*
X033930Y011680D01*
X033930Y011180D01*
X033930Y011680D01*
X033930Y011680D01*
X033930Y011680D01*
X033430Y011680D01*
X033430Y011887D01*
X033723Y012180D01*
X033930Y012180D01*
X033930Y011680D01*
X033430Y011680D01*
X033430Y011751D02*
X033174Y011751D01*
X033228Y011804D02*
X033295Y011966D01*
X033295Y012141D01*
X033228Y012303D01*
X033104Y012427D01*
X032942Y012494D01*
X032247Y012494D01*
X032085Y012427D01*
X031962Y012303D01*
X031895Y012141D01*
X031895Y011966D01*
X031962Y011804D01*
X032085Y011681D01*
X032247Y011614D01*
X032942Y011614D01*
X033104Y011681D01*
X033228Y011804D01*
X033271Y011909D02*
X033452Y011909D01*
X033295Y012068D02*
X033610Y012068D01*
X033930Y012068D02*
X033930Y012068D01*
X034250Y012068D02*
X034450Y012068D01*
X034450Y012226D02*
X033259Y012226D01*
X033146Y012385D02*
X034450Y012385D01*
X034468Y012543D02*
X032168Y012543D01*
X032043Y012385D02*
X032010Y012385D01*
X031930Y012226D02*
X031851Y012226D01*
X031810Y012068D02*
X031895Y012068D01*
X031350Y012068D02*
X000365Y012068D01*
X000365Y012226D02*
X031350Y012226D01*
X031359Y012385D02*
X000365Y012385D01*
X000365Y012543D02*
X031518Y012543D01*
X031676Y012702D02*
X030894Y012702D01*
X030802Y012663D02*
X031071Y012775D01*
X031276Y012980D01*
X031388Y013249D01*
X031388Y013540D01*
X031276Y013809D01*
X031071Y014014D01*
X030802Y014126D01*
X030511Y014126D01*
X030242Y014014D01*
X030037Y013809D01*
X029925Y013540D01*
X029925Y013249D01*
X030037Y012980D01*
X030242Y012775D01*
X030511Y012663D01*
X030802Y012663D01*
X030419Y012702D02*
X001398Y012702D01*
X001306Y012663D02*
X001574Y012775D01*
X001780Y012980D01*
X001891Y013249D01*
X001891Y013540D01*
X001780Y013809D01*
X001574Y014014D01*
X001306Y014126D01*
X001015Y014126D01*
X000746Y014014D01*
X000540Y013809D01*
X000429Y013540D01*
X000429Y013249D01*
X000540Y012980D01*
X000746Y012775D01*
X001015Y012663D01*
X001306Y012663D01*
X000923Y012702D02*
X000365Y012702D01*
X000365Y012860D02*
X000661Y012860D01*
X000525Y013019D02*
X000365Y013019D01*
X000365Y013177D02*
X000459Y013177D01*
X000429Y013336D02*
X000365Y013336D01*
X000365Y013494D02*
X000429Y013494D01*
X000476Y013653D02*
X000365Y013653D01*
X000365Y013811D02*
X000543Y013811D01*
X000701Y013970D02*
X000365Y013970D01*
X000365Y014128D02*
X031895Y014128D01*
X031895Y013970D02*
X031115Y013970D01*
X031274Y013811D02*
X031959Y013811D01*
X032153Y013653D02*
X031341Y013653D01*
X031388Y013494D02*
X036495Y013494D01*
X036495Y013336D02*
X033195Y013336D01*
X033280Y013177D02*
X036495Y013177D01*
X036495Y013019D02*
X035214Y013019D01*
X035370Y012860D02*
X036495Y012860D01*
X036495Y012702D02*
X035370Y012702D01*
X035370Y012543D02*
X036495Y012543D01*
X036495Y012385D02*
X035257Y012385D01*
X034910Y012226D02*
X036495Y012226D01*
X036495Y012068D02*
X036250Y012068D01*
X036408Y011909D02*
X036495Y011909D01*
X036495Y011751D02*
X036430Y011751D01*
X036430Y011592D02*
X036495Y011592D01*
X036495Y011434D02*
X036391Y011434D01*
X036495Y011275D02*
X036232Y011275D01*
X036354Y011117D02*
X036495Y011117D01*
X035850Y010800D02*
X034910Y010800D01*
X034910Y010958D02*
X035692Y010958D01*
X035640Y011117D02*
X034910Y011117D01*
X034910Y011275D02*
X035628Y011275D01*
X035469Y011434D02*
X034910Y011434D01*
X034910Y011592D02*
X035430Y011592D01*
X035430Y011751D02*
X034910Y011751D01*
X034910Y011909D02*
X035452Y011909D01*
X035610Y012068D02*
X034910Y012068D01*
X034450Y011909D02*
X034408Y011909D01*
X034430Y011751D02*
X034450Y011751D01*
X034450Y011592D02*
X034430Y011592D01*
X034450Y011434D02*
X034391Y011434D01*
X034450Y011275D02*
X034232Y011275D01*
X034450Y011117D02*
X033295Y011117D01*
X033291Y010958D02*
X034450Y010958D01*
X034450Y010800D02*
X033486Y010800D01*
X033644Y010641D02*
X034450Y010641D01*
X034450Y010483D02*
X033803Y010483D01*
X033961Y010324D02*
X034321Y010324D01*
X034910Y010483D02*
X035990Y010483D01*
X035990Y010641D02*
X034910Y010641D01*
X035039Y010324D02*
X035321Y010324D01*
X035283Y009785D02*
X035283Y009743D01*
X035304Y009722D01*
X035260Y009678D01*
X035223Y009590D01*
X035223Y009334D01*
X035137Y009247D01*
X035137Y009327D01*
X034698Y009327D01*
X034698Y008909D01*
X034798Y008909D01*
X034629Y008740D01*
X034461Y008909D01*
X034662Y008909D01*
X034662Y009327D01*
X034698Y009327D01*
X034698Y009364D01*
X035137Y009364D01*
X035137Y009566D01*
X035127Y009612D01*
X035109Y009656D01*
X035083Y009695D01*
X035056Y009722D01*
X035077Y009743D01*
X035077Y009785D01*
X035283Y009785D01*
X035272Y009690D02*
X035086Y009690D01*
X035137Y009532D02*
X035223Y009532D01*
X035223Y009373D02*
X035137Y009373D01*
X034698Y009215D02*
X034662Y009215D01*
X034662Y009327D02*
X034223Y009327D01*
X034223Y009146D01*
X033540Y009829D01*
X033540Y009952D01*
X033485Y010084D01*
X033390Y010179D01*
X033390Y010202D01*
X033360Y010275D01*
X033750Y009885D01*
X033885Y009750D01*
X034283Y009750D01*
X034283Y009743D01*
X034304Y009722D01*
X034277Y009695D01*
X034251Y009656D01*
X034233Y009612D01*
X034223Y009566D01*
X034223Y009364D01*
X034662Y009364D01*
X034662Y009327D01*
X034662Y009056D02*
X034698Y009056D01*
X034787Y008898D02*
X034472Y008898D01*
X034223Y009215D02*
X034155Y009215D01*
X034223Y009373D02*
X033996Y009373D01*
X033838Y009532D02*
X034223Y009532D01*
X034274Y009690D02*
X033679Y009690D01*
X033786Y009849D02*
X033540Y009849D01*
X033517Y010007D02*
X033628Y010007D01*
X033469Y010166D02*
X033404Y010166D01*
X032843Y009554D02*
X032235Y009554D01*
X032051Y009630D01*
X032010Y009671D01*
X032010Y009436D01*
X032073Y009481D01*
X032143Y009517D01*
X032217Y009541D01*
X032295Y009554D01*
X032595Y009554D01*
X032595Y009054D01*
X032595Y009054D01*
X032595Y009554D01*
X032843Y009554D01*
X032843Y009554D01*
X032595Y009532D02*
X032595Y009532D01*
X032595Y009373D02*
X032595Y009373D01*
X032595Y009215D02*
X032595Y009215D01*
X032595Y009056D02*
X032595Y009056D01*
X032187Y009532D02*
X032010Y009532D01*
X031350Y009532D02*
X000365Y009532D01*
X000365Y009373D02*
X031350Y009373D01*
X031350Y009215D02*
X000365Y009215D01*
X000365Y009056D02*
X031350Y009056D01*
X031350Y008898D02*
X000365Y008898D01*
X000365Y008739D02*
X031350Y008739D01*
X031350Y008581D02*
X000365Y008581D01*
X000365Y008422D02*
X031463Y008422D01*
X031621Y008264D02*
X000365Y008264D01*
X000365Y008105D02*
X031780Y008105D01*
X031922Y007947D02*
X000365Y007947D01*
X000365Y007788D02*
X031951Y007788D01*
X032074Y007630D02*
X000365Y007630D01*
X000365Y007471D02*
X032346Y007471D01*
X032486Y007630D02*
X032504Y007630D01*
X032187Y007313D02*
X000365Y007313D01*
X000365Y007154D02*
X032029Y007154D01*
X031870Y006996D02*
X000365Y006996D01*
X000365Y006837D02*
X008462Y006837D01*
X008303Y006679D02*
X000365Y006679D01*
X000365Y006520D02*
X008145Y006520D01*
X007986Y006362D02*
X000365Y006362D01*
X000365Y006203D02*
X007828Y006203D01*
X007669Y006045D02*
X000365Y006045D01*
X000365Y005886D02*
X007511Y005886D01*
X007352Y005728D02*
X000365Y005728D01*
X000365Y005569D02*
X007194Y005569D01*
X007035Y005411D02*
X000365Y005411D01*
X000365Y005252D02*
X006877Y005252D01*
X006718Y005094D02*
X000365Y005094D01*
X000365Y004935D02*
X006560Y004935D01*
X006401Y004777D02*
X000365Y004777D01*
X000365Y004618D02*
X006243Y004618D01*
X006084Y004460D02*
X000365Y004460D01*
X000365Y004301D02*
X005926Y004301D01*
X005767Y004143D02*
X000365Y004143D01*
X000365Y003984D02*
X005609Y003984D01*
X005450Y003826D02*
X000365Y003826D01*
X000365Y003667D02*
X005292Y003667D01*
X005133Y003509D02*
X000365Y003509D01*
X000365Y003350D02*
X004975Y003350D01*
X004816Y003192D02*
X000365Y003192D01*
X000365Y003033D02*
X004658Y003033D01*
X004499Y002875D02*
X000365Y002875D01*
X000365Y002716D02*
X004341Y002716D01*
X004182Y002558D02*
X000365Y002558D01*
X000365Y002399D02*
X004024Y002399D01*
X003900Y002241D02*
X000365Y002241D01*
X000365Y002082D02*
X003900Y002082D01*
X003900Y001924D02*
X001376Y001924D01*
X001306Y001953D02*
X001015Y001953D01*
X000746Y001841D01*
X000540Y001636D01*
X000429Y001367D01*
X000429Y001076D01*
X000540Y000807D01*
X000746Y000601D01*
X001015Y000490D01*
X001306Y000490D01*
X001574Y000601D01*
X001780Y000807D01*
X001891Y001076D01*
X001891Y001367D01*
X001780Y001636D01*
X001574Y001841D01*
X001306Y001953D01*
X000945Y001924D02*
X000365Y001924D01*
X000365Y001765D02*
X000670Y001765D01*
X000528Y001607D02*
X000365Y001607D01*
X000365Y001448D02*
X000463Y001448D01*
X000429Y001290D02*
X000365Y001290D01*
X000365Y001131D02*
X000429Y001131D01*
X000472Y000973D02*
X000365Y000973D01*
X000365Y000814D02*
X000538Y000814D01*
X000692Y000656D02*
X000365Y000656D01*
X000365Y000497D02*
X000998Y000497D01*
X001322Y000497D02*
X014334Y000497D01*
X014112Y000656D02*
X013817Y000656D01*
X013878Y000716D02*
X013944Y000877D01*
X013944Y001566D01*
X013878Y001727D01*
X013755Y001850D01*
X013594Y001916D01*
X013420Y001916D01*
X013259Y001850D01*
X013136Y001727D01*
X013069Y001566D01*
X013069Y000877D01*
X013136Y000716D01*
X013259Y000593D01*
X013420Y000526D01*
X013594Y000526D01*
X013755Y000593D01*
X013878Y000716D01*
X013918Y000814D02*
X014030Y000814D01*
X014009Y000973D02*
X013944Y000973D01*
X013944Y001131D02*
X014009Y001131D01*
X014009Y001290D02*
X013944Y001290D01*
X013944Y001448D02*
X014009Y001448D01*
X014021Y001607D02*
X013927Y001607D01*
X013886Y001765D02*
X013839Y001765D01*
X013174Y001765D02*
X013074Y001765D01*
X013086Y001607D02*
X012916Y001607D01*
X013069Y001448D02*
X012757Y001448D01*
X012599Y001290D02*
X013069Y001290D01*
X013069Y001131D02*
X012440Y001131D01*
X012282Y000973D02*
X013069Y000973D01*
X013095Y000814D02*
X012167Y000814D01*
X012029Y000656D02*
X013196Y000656D01*
X014680Y000497D02*
X027334Y000497D01*
X027112Y000656D02*
X026817Y000656D01*
X026878Y000716D02*
X026944Y000877D01*
X026944Y001566D01*
X026878Y001727D01*
X026755Y001850D01*
X026594Y001916D01*
X026569Y001916D01*
X024338Y004147D01*
X024338Y004251D01*
X024284Y004383D01*
X024183Y004484D01*
X024051Y004538D01*
X023909Y004538D01*
X023777Y004484D01*
X023676Y004383D01*
X023622Y004251D01*
X023622Y004109D01*
X023676Y003977D01*
X023777Y003876D01*
X023909Y003822D01*
X024013Y003822D01*
X026128Y001707D01*
X026069Y001566D01*
X026069Y000877D01*
X026136Y000716D01*
X026259Y000593D01*
X026420Y000526D01*
X026594Y000526D01*
X026755Y000593D01*
X026878Y000716D01*
X026918Y000814D02*
X027030Y000814D01*
X027009Y000973D02*
X026944Y000973D01*
X026944Y001131D02*
X027009Y001131D01*
X027009Y001290D02*
X026944Y001290D01*
X026944Y001448D02*
X027009Y001448D01*
X027021Y001607D02*
X026927Y001607D01*
X026839Y001765D02*
X027089Y001765D01*
X027214Y001924D02*
X026562Y001924D01*
X026403Y002082D02*
X027373Y002082D01*
X027531Y002241D02*
X026245Y002241D01*
X026086Y002399D02*
X026904Y002399D01*
X026822Y002558D02*
X025928Y002558D01*
X025769Y002716D02*
X026769Y002716D01*
X026610Y002875D02*
X025611Y002875D01*
X025452Y003033D02*
X026452Y003033D01*
X026293Y003192D02*
X025294Y003192D01*
X025135Y003350D02*
X026135Y003350D01*
X025976Y003509D02*
X024977Y003509D01*
X024818Y003667D02*
X025818Y003667D01*
X025659Y003826D02*
X024660Y003826D01*
X024501Y003984D02*
X025501Y003984D01*
X025342Y004143D02*
X024343Y004143D01*
X024318Y004301D02*
X025184Y004301D01*
X024867Y004460D02*
X024207Y004460D01*
X023753Y004460D02*
X016819Y004460D01*
X016660Y004301D02*
X023642Y004301D01*
X023622Y004143D02*
X016502Y004143D01*
X016343Y003984D02*
X023673Y003984D01*
X023899Y003826D02*
X016185Y003826D01*
X016026Y003667D02*
X024168Y003667D01*
X024326Y003509D02*
X015868Y003509D01*
X015709Y003350D02*
X024485Y003350D01*
X024643Y003192D02*
X015551Y003192D01*
X015392Y003033D02*
X024802Y003033D01*
X024960Y002875D02*
X015234Y002875D01*
X015075Y002716D02*
X025119Y002716D01*
X025277Y002558D02*
X014917Y002558D01*
X014758Y002399D02*
X025436Y002399D01*
X025594Y002241D02*
X014600Y002241D01*
X014587Y002082D02*
X025753Y002082D01*
X025911Y001924D02*
X014746Y001924D01*
X014924Y001765D02*
X015174Y001765D01*
X015136Y001727D02*
X015069Y001566D01*
X015069Y000877D01*
X015136Y000716D01*
X015259Y000593D01*
X015420Y000526D01*
X015594Y000526D01*
X015755Y000593D01*
X015878Y000716D01*
X015944Y000877D01*
X015944Y001566D01*
X015878Y001727D01*
X015755Y001850D01*
X015594Y001916D01*
X015420Y001916D01*
X015259Y001850D01*
X015136Y001727D01*
X015086Y001607D02*
X014992Y001607D01*
X015004Y001448D02*
X015069Y001448D01*
X015069Y001290D02*
X015004Y001290D01*
X015004Y001131D02*
X015069Y001131D01*
X015069Y000973D02*
X015004Y000973D01*
X014983Y000814D02*
X015095Y000814D01*
X015196Y000656D02*
X014902Y000656D01*
X015817Y000656D02*
X016196Y000656D01*
X016136Y000716D02*
X016259Y000593D01*
X016420Y000526D01*
X016594Y000526D01*
X016755Y000593D01*
X016878Y000716D01*
X016944Y000877D01*
X016944Y001566D01*
X016878Y001727D01*
X016755Y001850D01*
X016594Y001916D01*
X016420Y001916D01*
X016259Y001850D01*
X016136Y001727D01*
X016069Y001566D01*
X016069Y000877D01*
X016136Y000716D01*
X016095Y000814D02*
X015918Y000814D01*
X015944Y000973D02*
X016069Y000973D01*
X016069Y001131D02*
X015944Y001131D01*
X015944Y001290D02*
X016069Y001290D01*
X016069Y001448D02*
X015944Y001448D01*
X015927Y001607D02*
X016086Y001607D01*
X016174Y001765D02*
X015839Y001765D01*
X016839Y001765D02*
X017174Y001765D01*
X017136Y001727D02*
X017069Y001566D01*
X017069Y000877D01*
X017136Y000716D01*
X017259Y000593D01*
X017420Y000526D01*
X017594Y000526D01*
X017755Y000593D01*
X017878Y000716D01*
X017944Y000877D01*
X017944Y001566D01*
X017878Y001727D01*
X017755Y001850D01*
X017594Y001916D01*
X017420Y001916D01*
X017259Y001850D01*
X017136Y001727D01*
X017086Y001607D02*
X016927Y001607D01*
X016944Y001448D02*
X017069Y001448D01*
X017069Y001290D02*
X016944Y001290D01*
X016944Y001131D02*
X017069Y001131D01*
X017069Y000973D02*
X016944Y000973D01*
X016918Y000814D02*
X017095Y000814D01*
X017196Y000656D02*
X016817Y000656D01*
X017817Y000656D02*
X018196Y000656D01*
X018136Y000716D02*
X018259Y000593D01*
X018420Y000526D01*
X018594Y000526D01*
X018755Y000593D01*
X018878Y000716D01*
X018944Y000877D01*
X018944Y001566D01*
X018878Y001727D01*
X018755Y001850D01*
X018594Y001916D01*
X018420Y001916D01*
X018259Y001850D01*
X018136Y001727D01*
X018069Y001566D01*
X018069Y000877D01*
X018136Y000716D01*
X018095Y000814D02*
X017918Y000814D01*
X017944Y000973D02*
X018069Y000973D01*
X018069Y001131D02*
X017944Y001131D01*
X017944Y001290D02*
X018069Y001290D01*
X018069Y001448D02*
X017944Y001448D01*
X017927Y001607D02*
X018086Y001607D01*
X018174Y001765D02*
X017839Y001765D01*
X018839Y001765D02*
X019174Y001765D01*
X019136Y001727D02*
X019069Y001566D01*
X019069Y000877D01*
X019136Y000716D01*
X019259Y000593D01*
X019420Y000526D01*
X019594Y000526D01*
X019755Y000593D01*
X019878Y000716D01*
X019944Y000877D01*
X019944Y001566D01*
X019878Y001727D01*
X019755Y001850D01*
X019594Y001916D01*
X019420Y001916D01*
X019259Y001850D01*
X019136Y001727D01*
X019086Y001607D02*
X018927Y001607D01*
X018944Y001448D02*
X019069Y001448D01*
X019069Y001290D02*
X018944Y001290D01*
X018944Y001131D02*
X019069Y001131D01*
X019069Y000973D02*
X018944Y000973D01*
X018918Y000814D02*
X019095Y000814D01*
X019196Y000656D02*
X018817Y000656D01*
X019817Y000656D02*
X020196Y000656D01*
X020136Y000716D02*
X020259Y000593D01*
X020420Y000526D01*
X020594Y000526D01*
X020755Y000593D01*
X020878Y000716D01*
X020944Y000877D01*
X020944Y001566D01*
X020878Y001727D01*
X020755Y001850D01*
X020594Y001916D01*
X020420Y001916D01*
X020259Y001850D01*
X020136Y001727D01*
X020069Y001566D01*
X020069Y000877D01*
X020136Y000716D01*
X020095Y000814D02*
X019918Y000814D01*
X019944Y000973D02*
X020069Y000973D01*
X020069Y001131D02*
X019944Y001131D01*
X019944Y001290D02*
X020069Y001290D01*
X020069Y001448D02*
X019944Y001448D01*
X019927Y001607D02*
X020086Y001607D01*
X020174Y001765D02*
X019839Y001765D01*
X020839Y001765D02*
X021174Y001765D01*
X021136Y001727D02*
X021069Y001566D01*
X021069Y000877D01*
X021136Y000716D01*
X021259Y000593D01*
X021420Y000526D01*
X021594Y000526D01*
X021755Y000593D01*
X021878Y000716D01*
X021944Y000877D01*
X021944Y001566D01*
X021878Y001727D01*
X021755Y001850D01*
X021594Y001916D01*
X021420Y001916D01*
X021259Y001850D01*
X021136Y001727D01*
X021086Y001607D02*
X020927Y001607D01*
X020944Y001448D02*
X021069Y001448D01*
X021069Y001290D02*
X020944Y001290D01*
X020944Y001131D02*
X021069Y001131D01*
X021069Y000973D02*
X020944Y000973D01*
X020918Y000814D02*
X021095Y000814D01*
X021196Y000656D02*
X020817Y000656D01*
X021817Y000656D02*
X022196Y000656D01*
X022136Y000716D02*
X022259Y000593D01*
X022420Y000526D01*
X022594Y000526D01*
X022755Y000593D01*
X022878Y000716D01*
X022944Y000877D01*
X022944Y001566D01*
X022878Y001727D01*
X022755Y001850D01*
X022594Y001916D01*
X022420Y001916D01*
X022259Y001850D01*
X022136Y001727D01*
X022069Y001566D01*
X022069Y000877D01*
X022136Y000716D01*
X022095Y000814D02*
X021918Y000814D01*
X021944Y000973D02*
X022069Y000973D01*
X022069Y001131D02*
X021944Y001131D01*
X021944Y001290D02*
X022069Y001290D01*
X022069Y001448D02*
X021944Y001448D01*
X021927Y001607D02*
X022086Y001607D01*
X022174Y001765D02*
X021839Y001765D01*
X022839Y001765D02*
X023174Y001765D01*
X023136Y001727D02*
X023069Y001566D01*
X023069Y000877D01*
X023136Y000716D01*
X023259Y000593D01*
X023420Y000526D01*
X023594Y000526D01*
X023755Y000593D01*
X023878Y000716D01*
X023944Y000877D01*
X023944Y001566D01*
X023878Y001727D01*
X023755Y001850D01*
X023594Y001916D01*
X023420Y001916D01*
X023259Y001850D01*
X023136Y001727D01*
X023086Y001607D02*
X022927Y001607D01*
X022944Y001448D02*
X023069Y001448D01*
X023069Y001290D02*
X022944Y001290D01*
X022944Y001131D02*
X023069Y001131D01*
X023069Y000973D02*
X022944Y000973D01*
X022918Y000814D02*
X023095Y000814D01*
X023196Y000656D02*
X022817Y000656D01*
X023817Y000656D02*
X024196Y000656D01*
X024136Y000716D02*
X024259Y000593D01*
X024420Y000526D01*
X024594Y000526D01*
X024755Y000593D01*
X024878Y000716D01*
X024944Y000877D01*
X024944Y001566D01*
X024878Y001727D01*
X024755Y001850D01*
X024594Y001916D01*
X024420Y001916D01*
X024259Y001850D01*
X024136Y001727D01*
X024069Y001566D01*
X024069Y000877D01*
X024136Y000716D01*
X024095Y000814D02*
X023918Y000814D01*
X023944Y000973D02*
X024069Y000973D01*
X024069Y001131D02*
X023944Y001131D01*
X023944Y001290D02*
X024069Y001290D01*
X024069Y001448D02*
X023944Y001448D01*
X023927Y001607D02*
X024086Y001607D01*
X024174Y001765D02*
X023839Y001765D01*
X024839Y001765D02*
X025174Y001765D01*
X025136Y001727D02*
X025069Y001566D01*
X025069Y000877D01*
X025136Y000716D01*
X025259Y000593D01*
X025420Y000526D01*
X025594Y000526D01*
X025755Y000593D01*
X025878Y000716D01*
X025944Y000877D01*
X025944Y001566D01*
X025878Y001727D01*
X025755Y001850D01*
X025594Y001916D01*
X025420Y001916D01*
X025259Y001850D01*
X025136Y001727D01*
X025086Y001607D02*
X024927Y001607D01*
X024944Y001448D02*
X025069Y001448D01*
X025069Y001290D02*
X024944Y001290D01*
X024944Y001131D02*
X025069Y001131D01*
X025069Y000973D02*
X024944Y000973D01*
X024918Y000814D02*
X025095Y000814D01*
X025196Y000656D02*
X024817Y000656D01*
X025817Y000656D02*
X026196Y000656D01*
X026095Y000814D02*
X025918Y000814D01*
X025944Y000973D02*
X026069Y000973D01*
X026069Y001131D02*
X025944Y001131D01*
X025944Y001290D02*
X026069Y001290D01*
X026069Y001448D02*
X025944Y001448D01*
X025927Y001607D02*
X026086Y001607D01*
X026070Y001765D02*
X025839Y001765D01*
X027456Y002399D02*
X027552Y002399D01*
X028340Y002241D02*
X031513Y002241D01*
X031747Y002241D02*
X031770Y002241D01*
X031770Y002082D02*
X028329Y002082D01*
X028390Y001964D02*
X028316Y001940D01*
X028246Y001904D01*
X028183Y001858D01*
X028127Y001803D01*
X028081Y001740D01*
X028046Y001670D01*
X028022Y001595D01*
X028009Y001518D01*
X028009Y001221D01*
X028009Y000925D01*
X028022Y000847D01*
X028046Y000773D01*
X028081Y000703D01*
X028127Y000640D01*
X028183Y000584D01*
X028246Y000538D01*
X028316Y000503D01*
X028390Y000479D01*
X028468Y000466D01*
X028507Y000466D01*
X028546Y000466D01*
X028623Y000479D01*
X028698Y000503D01*
X028768Y000538D01*
X028831Y000584D01*
X028886Y000640D01*
X028932Y000703D01*
X028968Y000773D01*
X028992Y000847D01*
X029004Y000925D01*
X029004Y001221D01*
X028507Y001221D01*
X028507Y000466D01*
X028507Y001221D01*
X028507Y001221D01*
X028507Y001221D01*
X029004Y001221D01*
X029004Y001518D01*
X028992Y001595D01*
X028968Y001670D01*
X028932Y001740D01*
X028886Y001803D01*
X028831Y001858D01*
X028768Y001904D01*
X028698Y001940D01*
X028623Y001964D01*
X028546Y001976D01*
X028507Y001976D01*
X028507Y001221D01*
X028009Y001221D01*
X028507Y001221D01*
X028507Y001221D01*
X028507Y001221D01*
X028507Y001976D01*
X028468Y001976D01*
X028390Y001964D01*
X028284Y001924D02*
X028233Y001924D01*
X028100Y001765D02*
X028074Y001765D01*
X028025Y001607D02*
X027992Y001607D01*
X028004Y001448D02*
X028009Y001448D01*
X028004Y001290D02*
X028009Y001290D01*
X028004Y001131D02*
X028009Y001131D01*
X028004Y000973D02*
X028009Y000973D01*
X028032Y000814D02*
X027983Y000814D01*
X027902Y000656D02*
X028116Y000656D01*
X028334Y000497D02*
X027680Y000497D01*
X028507Y000497D02*
X028507Y000497D01*
X028507Y000656D02*
X028507Y000656D01*
X028507Y000814D02*
X028507Y000814D01*
X028507Y000973D02*
X028507Y000973D01*
X028507Y001131D02*
X028507Y001131D01*
X028507Y001290D02*
X028507Y001290D01*
X028507Y001448D02*
X028507Y001448D01*
X028507Y001607D02*
X028507Y001607D01*
X028507Y001765D02*
X028507Y001765D01*
X028507Y001924D02*
X028507Y001924D01*
X028730Y001924D02*
X030441Y001924D01*
X030511Y001953D02*
X030242Y001841D01*
X030037Y001636D01*
X029925Y001367D01*
X029925Y001076D01*
X030037Y000807D01*
X030242Y000601D01*
X030511Y000490D01*
X030802Y000490D01*
X031071Y000601D01*
X031276Y000807D01*
X031388Y001076D01*
X031388Y001367D01*
X031276Y001636D01*
X031071Y001841D01*
X030802Y001953D01*
X030511Y001953D01*
X030872Y001924D02*
X031829Y001924D01*
X031770Y001765D02*
X031147Y001765D01*
X031288Y001607D02*
X031770Y001607D01*
X031769Y001448D02*
X031354Y001448D01*
X031388Y001290D02*
X031710Y001290D01*
X031710Y001180D02*
X031710Y001046D01*
X031719Y001000D01*
X031737Y000956D01*
X031764Y000917D01*
X031797Y000884D01*
X031836Y000857D01*
X031880Y000839D01*
X031926Y000830D01*
X032400Y000830D01*
X032874Y000830D01*
X032920Y000839D01*
X032964Y000857D01*
X033003Y000884D01*
X033036Y000917D01*
X033063Y000956D01*
X033081Y001000D01*
X033090Y001046D01*
X033090Y001180D01*
X032400Y001180D01*
X032400Y001180D01*
X032400Y000830D01*
X032400Y001180D01*
X032400Y001180D01*
X032400Y001180D01*
X031710Y001180D01*
X031710Y001131D02*
X031388Y001131D01*
X031345Y000973D02*
X031731Y000973D01*
X032400Y000973D02*
X032400Y000973D01*
X032400Y001131D02*
X032400Y001131D01*
X033069Y000973D02*
X034812Y000973D01*
X034654Y001131D02*
X033090Y001131D01*
X033090Y001290D02*
X034495Y001290D01*
X034337Y001448D02*
X033031Y001448D01*
X033363Y001607D02*
X034178Y001607D01*
X034020Y001765D02*
X033470Y001765D01*
X033488Y001924D02*
X033861Y001924D01*
X033703Y002082D02*
X033434Y002082D01*
X033460Y002241D02*
X033544Y002241D01*
X031317Y002399D02*
X030949Y002399D01*
X030698Y002399D02*
X030662Y002399D01*
X030662Y002389D02*
X030662Y002827D01*
X030243Y002827D01*
X030243Y002605D01*
X030252Y002559D01*
X030270Y002515D01*
X030297Y002476D01*
X030330Y002442D01*
X030369Y002416D01*
X030413Y002398D01*
X030460Y002389D01*
X030662Y002389D01*
X030662Y002558D02*
X030698Y002558D01*
X030698Y002716D02*
X030662Y002716D01*
X030243Y002716D02*
X030117Y002716D01*
X030117Y002875D02*
X030243Y002875D01*
X030243Y003033D02*
X030117Y003033D01*
X030104Y003192D02*
X030256Y003192D01*
X029662Y002827D02*
X029662Y002389D01*
X029460Y002389D01*
X029413Y002398D01*
X029369Y002416D01*
X029330Y002442D01*
X029297Y002476D01*
X029270Y002515D01*
X029252Y002559D01*
X029243Y002605D01*
X029243Y002827D01*
X029662Y002827D01*
X029662Y002716D02*
X029698Y002716D01*
X029698Y002558D02*
X029662Y002558D01*
X029662Y002399D02*
X029698Y002399D01*
X029949Y002399D02*
X030411Y002399D01*
X030253Y002558D02*
X030107Y002558D01*
X029411Y002399D02*
X028358Y002399D01*
X028517Y002558D02*
X029253Y002558D01*
X029243Y002716D02*
X028675Y002716D01*
X028834Y002875D02*
X029243Y002875D01*
X029243Y003033D02*
X028992Y003033D01*
X029151Y003192D02*
X029256Y003192D01*
X028914Y001765D02*
X030166Y001765D01*
X030024Y001607D02*
X028988Y001607D01*
X029004Y001448D02*
X029959Y001448D01*
X029925Y001290D02*
X029004Y001290D01*
X029004Y001131D02*
X029925Y001131D01*
X029968Y000973D02*
X029004Y000973D01*
X028981Y000814D02*
X030034Y000814D01*
X030188Y000656D02*
X028898Y000656D01*
X028680Y000497D02*
X030494Y000497D01*
X030818Y000497D02*
X036495Y000497D01*
X036495Y000656D02*
X031125Y000656D01*
X031279Y000814D02*
X036495Y000814D01*
X024709Y004618D02*
X016977Y004618D01*
X017136Y004777D02*
X024672Y004777D01*
X026932Y006203D02*
X030624Y006203D01*
X030626Y006362D02*
X017068Y006362D01*
X017172Y006520D02*
X030713Y006520D01*
X031247Y006520D02*
X031395Y006520D01*
X031553Y006679D02*
X017188Y006679D01*
X017130Y006837D02*
X031712Y006837D01*
X031350Y009690D02*
X000365Y009690D01*
X000365Y009849D02*
X031350Y009849D01*
X031350Y010007D02*
X000365Y010007D01*
X001660Y012860D02*
X030157Y012860D01*
X030021Y013019D02*
X001796Y013019D01*
X001862Y013177D02*
X029955Y013177D01*
X029925Y013336D02*
X001891Y013336D01*
X001891Y013494D02*
X029925Y013494D01*
X029972Y013653D02*
X001845Y013653D01*
X001778Y013811D02*
X030039Y013811D01*
X030197Y013970D02*
X001619Y013970D01*
X008637Y006362D02*
X008894Y006362D01*
X008714Y006203D02*
X008478Y006203D01*
X008320Y006045D02*
X008672Y006045D01*
X008702Y005886D02*
X008161Y005886D01*
X008003Y005728D02*
X008826Y005728D01*
X009234Y005728D02*
X010307Y005728D01*
X010466Y005569D02*
X007844Y005569D01*
X007686Y005411D02*
X013922Y005411D01*
X013945Y005252D02*
X007527Y005252D01*
X007369Y005094D02*
X014060Y005094D01*
X014500Y005094D02*
X016360Y005094D01*
X016276Y004935D02*
X007210Y004935D01*
X007052Y004777D02*
X011594Y004777D01*
X011376Y004618D02*
X006893Y004618D01*
X006735Y004460D02*
X011312Y004460D01*
X011312Y004301D02*
X006576Y004301D01*
X006418Y004143D02*
X011376Y004143D01*
X011593Y003984D02*
X006259Y003984D01*
X006101Y003826D02*
X011775Y003826D01*
X011934Y003667D02*
X005942Y003667D01*
X005784Y003509D02*
X012092Y003509D01*
X011975Y003350D02*
X005625Y003350D01*
X005467Y003192D02*
X011816Y003192D01*
X011658Y003033D02*
X005308Y003033D01*
X005150Y002875D02*
X011499Y002875D01*
X011341Y002716D02*
X004991Y002716D01*
X004966Y002558D02*
X004833Y002558D01*
X004876Y002399D02*
X004674Y002399D01*
X004731Y002241D02*
X004516Y002241D01*
X004408Y002082D02*
X004360Y002082D01*
X004360Y001924D02*
X004388Y001924D01*
X004388Y001765D02*
X004360Y001765D01*
X004360Y001607D02*
X004388Y001607D01*
X004387Y001448D02*
X004432Y001448D01*
X004054Y001131D02*
X001891Y001131D01*
X001891Y001290D02*
X003900Y001290D01*
X003900Y001448D02*
X001858Y001448D01*
X001792Y001607D02*
X003900Y001607D01*
X003900Y001765D02*
X001651Y001765D01*
X001849Y000973D02*
X004212Y000973D01*
X004482Y000814D02*
X001783Y000814D01*
X001629Y000656D02*
X010151Y000656D01*
X010014Y000814D02*
X007083Y000814D01*
X007083Y000973D02*
X010009Y000973D01*
X010009Y001131D02*
X007083Y001131D01*
X007083Y001290D02*
X010009Y001290D01*
X010089Y001448D02*
X007060Y001448D01*
X007143Y001607D02*
X010069Y001607D01*
X010069Y001765D02*
X007143Y001765D01*
X007143Y001846D02*
X006646Y001846D01*
X006646Y002264D01*
X006927Y002264D01*
X006973Y002255D01*
X007017Y002237D01*
X007056Y002211D01*
X007090Y002177D01*
X007116Y002138D01*
X007134Y002094D01*
X007143Y002048D01*
X007143Y001846D01*
X007143Y001924D02*
X010069Y001924D01*
X010138Y002082D02*
X007136Y002082D01*
X006646Y002082D02*
X006609Y002082D01*
X006609Y001924D02*
X006646Y001924D01*
X006646Y002241D02*
X006609Y002241D01*
X006246Y002241D02*
X006067Y002241D01*
X005684Y002399D02*
X011024Y002399D01*
X011182Y002558D02*
X005594Y002558D01*
X007009Y002241D02*
X010865Y002241D01*
X013390Y002716D02*
X014057Y002716D01*
X014215Y002875D02*
X013390Y002875D01*
X013390Y003033D02*
X014374Y003033D01*
X014532Y003192D02*
X013373Y003192D01*
X013269Y003350D02*
X014691Y003350D01*
X014849Y003509D02*
X013111Y003509D01*
X012952Y003667D02*
X015008Y003667D01*
X015166Y003826D02*
X012794Y003826D01*
X012635Y003984D02*
X015325Y003984D01*
X015483Y004143D02*
X012477Y004143D01*
X012318Y004301D02*
X015642Y004301D01*
X015800Y004460D02*
X012160Y004460D01*
X012084Y004618D02*
X015959Y004618D01*
X016117Y004777D02*
X011866Y004777D01*
X010555Y006362D02*
X009166Y006362D01*
X005221Y000814D02*
X005208Y000814D01*
X010779Y000656D02*
X011401Y000656D01*
X031810Y010641D02*
X031816Y010641D01*
X031810Y010800D02*
X031966Y010800D01*
X031898Y010958D02*
X031810Y010958D01*
X031810Y011117D02*
X031895Y011117D01*
X033087Y011434D02*
X033469Y011434D01*
X033628Y011275D02*
X033239Y011275D01*
X033930Y011275D02*
X033930Y011275D01*
X033930Y011434D02*
X033930Y011434D01*
X033930Y011592D02*
X033930Y011592D01*
X033930Y011751D02*
X033930Y011751D01*
X033930Y011909D02*
X033930Y011909D01*
X034490Y012702D02*
X033125Y012702D01*
X033251Y012860D02*
X034490Y012860D01*
X034646Y013019D02*
X033295Y013019D01*
X033036Y013653D02*
X036495Y013653D01*
X036495Y013811D02*
X033230Y013811D01*
X033295Y013970D02*
X036495Y013970D01*
X036495Y014128D02*
X033295Y014128D01*
X031994Y013336D02*
X031388Y013336D01*
X031358Y013177D02*
X031909Y013177D01*
X031895Y013019D02*
X031292Y013019D01*
X031156Y012860D02*
X031835Y012860D01*
X031810Y011909D02*
X031918Y011909D01*
X032015Y011751D02*
X031810Y011751D01*
M02*
