G75*
%MOIN*%
%OFA0B0*%
%FSLAX24Y24*%
%IPPOS*%
%LPD*%
%AMOC8*
5,1,8,0,0,1.08239X$1,22.5*
%
%ADD10R,0.0980X0.0300*%
%ADD11C,0.0595*%
%ADD12C,0.1182*%
%ADD13R,0.0631X0.0474*%
%ADD14R,0.0513X0.0474*%
%ADD15OC8,0.0600*%
%ADD16C,0.0820*%
%ADD17R,0.0474X0.0513*%
%ADD18C,0.0600*%
D10*
X032400Y001180D03*
X032400Y001680D03*
X032400Y002180D03*
X032400Y002680D03*
X032400Y003180D03*
X032400Y003680D03*
X032400Y004180D03*
X032400Y004680D03*
X035960Y004680D03*
X035960Y004180D03*
X035960Y003680D03*
X035960Y003180D03*
X035960Y002680D03*
X035960Y002180D03*
X035960Y001680D03*
X035960Y001180D03*
D11*
X028507Y000964D02*
X028507Y001479D01*
X027507Y001479D02*
X027507Y000964D01*
X026507Y000964D02*
X026507Y001479D01*
X025507Y001479D02*
X025507Y000964D01*
X024507Y000964D02*
X024507Y001479D01*
X023507Y001479D02*
X023507Y000964D01*
X022507Y000964D02*
X022507Y001479D01*
X021507Y001479D02*
X021507Y000964D01*
X020507Y000964D02*
X020507Y001479D01*
X019507Y001479D02*
X019507Y000964D01*
X018507Y000964D02*
X018507Y001479D01*
X017507Y001479D02*
X017507Y000964D01*
X016507Y000964D02*
X016507Y001479D01*
X015507Y001479D02*
X015507Y000964D01*
X014507Y000964D02*
X014507Y001479D01*
X013507Y001479D02*
X013507Y000964D01*
D12*
X001160Y001221D03*
X030656Y001221D03*
X030656Y013395D03*
X001160Y013395D03*
D13*
X006628Y001828D03*
X005761Y001454D03*
X006628Y001080D03*
D14*
X004845Y001119D03*
X004845Y001788D03*
X010465Y001741D03*
X011715Y001741D03*
X011715Y001072D03*
X010465Y001072D03*
X034680Y009345D03*
X035680Y009345D03*
X035680Y010015D03*
X034680Y010015D03*
D15*
X033930Y011680D03*
X035930Y011680D03*
X034930Y012680D03*
D16*
X036082Y008204D03*
X033522Y008204D03*
X033522Y006424D03*
X036082Y006424D03*
D17*
X030680Y003515D03*
X029680Y003515D03*
X029680Y002845D03*
X030680Y002845D03*
D18*
X032335Y009054D02*
X032855Y009054D01*
X032855Y010054D02*
X032335Y010054D01*
X032335Y011054D02*
X032855Y011054D01*
X032855Y012054D02*
X032335Y012054D01*
X032335Y013054D02*
X032855Y013054D01*
X032855Y014054D02*
X032335Y014054D01*
M02*
