G75*
%MOIN*%
%OFA0B0*%
%FSLAX24Y24*%
%IPPOS*%
%LPD*%
%AMOC8*
5,1,8,0,0,1.08239X$1,22.5*
%
%ADD10C,0.0170*%
%ADD11C,0.0515*%
%ADD12OC8,0.0520*%
%ADD13C,0.0740*%
%ADD14C,0.0520*%
%ADD15R,0.0630X0.0460*%
%ADD16R,0.0080X0.0250*%
%ADD17C,0.0240*%
%ADD18C,0.0357*%
%ADD19C,0.0100*%
%ADD20C,0.0160*%
D10*
X003532Y012685D02*
X003417Y012800D01*
X003417Y013375D01*
X003762Y013375D01*
X003877Y013260D01*
X003877Y013030D01*
X003762Y012915D01*
X003417Y012915D01*
X003532Y012685D02*
X003647Y012685D01*
X004537Y012915D02*
X004537Y013375D01*
X004537Y013145D02*
X004307Y013375D01*
X004192Y013375D01*
X004869Y013260D02*
X004869Y013030D01*
X004984Y012915D01*
X005214Y012915D01*
X005329Y013030D01*
X005329Y013260D01*
X005214Y013375D01*
X004984Y013375D01*
X004869Y013260D01*
X005610Y013030D02*
X005610Y012915D01*
X005725Y012915D01*
X005725Y013030D01*
X005610Y013030D01*
X006040Y013375D02*
X006155Y013375D01*
X006385Y013145D01*
X006385Y012915D02*
X006385Y013375D01*
X006716Y013260D02*
X006831Y013375D01*
X007062Y013375D01*
X007177Y013260D01*
X007177Y013030D01*
X007062Y012915D01*
X006831Y012915D01*
X006716Y013030D01*
X006716Y013260D01*
X007474Y013375D02*
X007705Y013375D01*
X007590Y013490D02*
X007590Y013030D01*
X007474Y012915D01*
X008002Y012915D02*
X008233Y012915D01*
X008117Y012915D02*
X008117Y013375D01*
X008233Y013375D01*
X008564Y013260D02*
X008564Y012915D01*
X009024Y012915D02*
X009024Y013375D01*
X008679Y013375D01*
X008564Y013260D01*
X008117Y013606D02*
X008117Y013721D01*
X009356Y013260D02*
X009471Y013375D01*
X009701Y013375D01*
X009816Y013260D01*
X009816Y013030D01*
X009701Y012915D01*
X009471Y012915D01*
X009356Y013030D01*
X009356Y013260D01*
X010148Y012915D02*
X010148Y013606D01*
X010378Y013375D01*
X010608Y013606D01*
X010608Y012915D01*
X010940Y012915D02*
X011285Y012915D01*
X011400Y013030D01*
X011400Y013375D01*
X011732Y013375D02*
X012077Y013375D01*
X012192Y013260D01*
X012192Y013030D01*
X012077Y012915D01*
X011732Y012915D01*
X011732Y012800D02*
X011732Y013375D01*
X012507Y013375D02*
X012622Y013375D01*
X012852Y013145D01*
X012852Y012915D02*
X012852Y013375D01*
X013183Y013260D02*
X013183Y013145D01*
X013644Y013145D01*
X013644Y013030D02*
X013644Y013260D01*
X013529Y013375D01*
X013298Y013375D01*
X013183Y013260D01*
X013529Y012915D02*
X013644Y013030D01*
X013529Y012915D02*
X013298Y012915D01*
X013975Y012915D02*
X013975Y013260D01*
X014090Y013375D01*
X014436Y013375D01*
X014436Y012915D01*
X014767Y012915D02*
X015227Y012915D01*
X015227Y013606D01*
X014767Y013606D01*
X014997Y013260D02*
X015227Y013260D01*
X015559Y013260D02*
X015559Y012915D01*
X016019Y012915D02*
X016019Y013375D01*
X015674Y013375D01*
X015559Y013260D01*
X016351Y013260D02*
X016351Y013145D01*
X016811Y013145D01*
X016811Y013030D02*
X016811Y013260D01*
X016696Y013375D01*
X016466Y013375D01*
X016351Y013260D01*
X016696Y012915D02*
X016811Y013030D01*
X016696Y012915D02*
X016466Y012915D01*
X017143Y013030D02*
X017258Y012915D01*
X017603Y012915D01*
X017603Y012685D02*
X017603Y013375D01*
X017258Y013375D01*
X017143Y013260D01*
X017143Y013030D01*
X017935Y013030D02*
X018050Y012915D01*
X018280Y012915D01*
X018395Y013030D01*
X018395Y013490D01*
X018280Y013606D01*
X018050Y013606D01*
X017935Y013490D01*
X017935Y013030D01*
X011962Y012685D02*
X011847Y012685D01*
X011732Y012800D01*
X011170Y012685D02*
X011055Y012685D01*
X010940Y012800D01*
X010940Y013375D01*
D11*
X013507Y001479D02*
X013507Y000964D01*
X014507Y000964D02*
X014507Y001479D01*
X015507Y001479D02*
X015507Y000964D01*
X016507Y000964D02*
X016507Y001479D01*
X017507Y001479D02*
X017507Y000964D01*
X018507Y000964D02*
X018507Y001479D01*
X019507Y001479D02*
X019507Y000964D01*
X020507Y000964D02*
X020507Y001479D01*
X021507Y001479D02*
X021507Y000964D01*
X022507Y000964D02*
X022507Y001479D01*
X023507Y001479D02*
X023507Y000964D01*
X024507Y000964D02*
X024507Y001479D01*
X025507Y001479D02*
X025507Y000964D01*
X026507Y000964D02*
X026507Y001479D01*
X027507Y001479D02*
X027507Y000964D01*
X028507Y000964D02*
X028507Y001479D01*
D12*
X033930Y011680D03*
X035930Y011680D03*
X034930Y012680D03*
D13*
X036082Y008204D03*
X033522Y008204D03*
X033522Y006424D03*
X036082Y006424D03*
D14*
X032855Y009054D02*
X032335Y009054D01*
X032335Y010054D02*
X032855Y010054D01*
X032855Y011054D02*
X032335Y011054D01*
X032335Y012054D02*
X032855Y012054D01*
X032855Y013054D02*
X032335Y013054D01*
X032335Y014054D02*
X032855Y014054D01*
D15*
X011830Y005980D03*
X011830Y005380D03*
X010130Y005380D03*
X010130Y005980D03*
X008430Y005980D03*
X008430Y005380D03*
D16*
X008430Y005680D03*
X010130Y005680D03*
X011830Y005680D03*
D17*
X011830Y005380D02*
X011830Y004730D01*
X011630Y004530D01*
X011680Y004430D01*
X011730Y004380D01*
X011630Y004530D02*
X010180Y004530D01*
X010055Y004655D01*
X010130Y004730D01*
X010130Y005380D01*
X010055Y004655D02*
X009930Y004530D01*
X008480Y004530D01*
X008355Y004655D01*
X008230Y004530D01*
X007830Y004530D01*
X005580Y002280D01*
X005280Y002280D01*
X008355Y004655D02*
X008430Y004730D01*
X008430Y005380D01*
X018280Y007580D02*
X027680Y007580D01*
X031780Y007580D02*
X031780Y008580D01*
X032254Y009054D01*
X032595Y009054D01*
X033554Y009054D01*
X033830Y009330D01*
X033830Y009780D01*
X033830Y011580D01*
X033930Y011680D01*
D18*
X030380Y011580D03*
X030380Y010680D03*
X028980Y009580D03*
X032280Y007930D03*
X031780Y007580D03*
X032680Y006580D03*
X033980Y007080D03*
X030980Y006280D03*
X034180Y005080D03*
X034530Y005380D03*
X035180Y004180D03*
X034780Y003680D03*
X033780Y003330D03*
X033280Y003330D03*
X033280Y002830D03*
X033130Y002380D03*
X033130Y001880D03*
X031630Y002580D03*
X031180Y002880D03*
X031630Y003080D03*
X033730Y003880D03*
X029580Y002080D03*
X027180Y002630D03*
X023980Y004180D03*
X025030Y004780D03*
X027680Y007580D03*
X023780Y008380D03*
X018280Y007580D03*
X016830Y006630D03*
X016580Y005380D03*
X014280Y005380D03*
X011730Y004380D03*
X012330Y003130D03*
X011930Y002230D03*
X009380Y001380D03*
X007680Y000580D03*
X005880Y001930D03*
X005280Y002280D03*
X002980Y000880D03*
X009030Y006030D03*
X010780Y006080D03*
X006080Y006880D03*
X002480Y006680D03*
X006180Y010280D03*
X015280Y008780D03*
X029280Y012580D03*
X031780Y013480D03*
X029480Y013880D03*
X034380Y013480D03*
X034180Y009580D03*
X029480Y000680D03*
X033080Y000580D03*
D19*
X033130Y001880D02*
X034130Y002880D01*
X034130Y003980D01*
X031480Y006630D01*
X016830Y006630D01*
X016580Y005380D02*
X018680Y003280D01*
X024180Y003280D01*
X025030Y004130D01*
X025030Y004780D01*
X023980Y005180D02*
X025080Y006280D01*
X030980Y006280D01*
X030880Y006980D02*
X030380Y007480D01*
X030380Y010680D01*
X030780Y010780D02*
X031180Y011180D01*
X032030Y011180D01*
X032130Y011080D01*
X032580Y011080D01*
X032595Y011054D01*
X031180Y011180D02*
X020880Y011180D01*
X011930Y002230D01*
X011730Y001930D02*
X012330Y001330D01*
X013030Y001330D01*
X013080Y001280D01*
X013430Y001280D01*
X013480Y001230D01*
X013507Y001221D01*
X011730Y001930D02*
X005880Y001930D01*
X012330Y003130D02*
X012530Y003130D01*
X021430Y012030D01*
X030680Y012030D01*
X030380Y011730D01*
X030380Y011580D01*
X030680Y012030D02*
X032580Y012030D01*
X032595Y012054D01*
X035280Y011830D02*
X035280Y008430D01*
X035506Y008204D01*
X036082Y008204D01*
X036080Y008180D01*
X035880Y008180D01*
X035430Y007730D01*
X034180Y007730D01*
X033730Y008180D01*
X033530Y008180D01*
X033522Y008204D01*
X033105Y007105D02*
X032280Y007930D01*
X031380Y007380D02*
X031080Y007380D01*
X030780Y007680D01*
X030780Y010780D01*
X033830Y009780D02*
X034030Y009580D01*
X034180Y009580D01*
X033780Y007430D02*
X033580Y007230D01*
X033230Y007230D01*
X033105Y007105D01*
X033480Y006730D01*
X033480Y006430D01*
X033522Y006424D01*
X032680Y006380D02*
X033980Y005080D01*
X034180Y005080D01*
X034530Y005380D02*
X034530Y006530D01*
X033980Y007080D01*
X033780Y007430D02*
X034880Y007430D01*
X035880Y006430D01*
X036080Y006430D01*
X036082Y006424D01*
X032680Y006380D02*
X032680Y006580D01*
X031480Y006980D02*
X030880Y006980D01*
X031480Y006980D02*
X034780Y003680D01*
X033780Y003330D02*
X032880Y004230D01*
X025780Y004230D01*
X024330Y002780D01*
X017830Y002780D01*
X016530Y001480D01*
X016530Y001230D01*
X016507Y001221D01*
X015530Y001230D02*
X015507Y001221D01*
X015530Y001230D02*
X015530Y001480D01*
X017030Y002980D01*
X024230Y002980D01*
X025680Y004430D01*
X032980Y004430D01*
X033530Y003880D01*
X033730Y003880D01*
X034580Y004180D02*
X031380Y007380D01*
X023980Y005180D02*
X023980Y004180D01*
X024430Y002580D02*
X025880Y004030D01*
X032080Y004030D01*
X032780Y003330D01*
X033280Y003330D01*
X033280Y002830D02*
X032980Y002830D01*
X031980Y003830D01*
X025980Y003830D01*
X024530Y002380D01*
X019430Y002380D01*
X018530Y001480D01*
X018530Y001230D01*
X018507Y001221D01*
X017530Y001230D02*
X017507Y001221D01*
X017530Y001230D02*
X017530Y001480D01*
X018630Y002580D01*
X024430Y002580D01*
X024230Y002180D02*
X023530Y001480D01*
X023530Y001230D01*
X023507Y001221D01*
X024507Y001221D02*
X024530Y001230D01*
X024530Y001480D01*
X026480Y003430D01*
X031780Y003430D01*
X031980Y003230D01*
X031980Y002930D01*
X031630Y002580D01*
X031180Y002880D02*
X030930Y002630D01*
X027180Y002630D01*
X027280Y003230D02*
X025530Y001480D01*
X025530Y001230D01*
X025507Y001221D01*
X024630Y002180D02*
X024230Y002180D01*
X024630Y002180D02*
X026080Y003630D01*
X031880Y003630D01*
X033130Y002380D01*
X031630Y003080D02*
X031480Y003080D01*
X031330Y003230D01*
X027280Y003230D01*
X034580Y004180D02*
X035180Y004180D01*
X035280Y011830D02*
X035330Y011880D01*
X035330Y012280D01*
X035730Y012680D01*
X035730Y013180D01*
X034930Y013980D01*
X032668Y013980D01*
X032595Y014054D01*
X014280Y005380D02*
X013630Y006030D01*
X012230Y006030D01*
X012180Y005980D01*
X011830Y005980D01*
X010780Y006080D02*
X010730Y006030D01*
X010530Y006030D01*
X010480Y005980D01*
X010130Y005980D01*
X009030Y006030D02*
X008830Y006030D01*
X008780Y005980D01*
X008430Y005980D01*
D20*
X000365Y000365D02*
X000365Y014245D01*
X031938Y014245D01*
X031895Y014141D01*
X031895Y013966D01*
X031962Y013804D01*
X032085Y013681D01*
X032247Y013614D01*
X032942Y013614D01*
X033104Y013681D01*
X033173Y013750D01*
X034835Y013750D01*
X035500Y013085D01*
X035500Y012775D01*
X035370Y012645D01*
X035370Y012862D01*
X035112Y013120D01*
X034748Y013120D01*
X034490Y012862D01*
X034490Y012498D01*
X034748Y012240D01*
X035100Y012240D01*
X035100Y011975D01*
X035050Y011925D01*
X035050Y008335D01*
X035276Y008109D01*
X035276Y008109D01*
X035380Y008005D01*
X035335Y007960D01*
X034275Y007960D01*
X034072Y008163D01*
X034072Y008313D01*
X033988Y008515D01*
X033834Y008670D01*
X033631Y008754D01*
X033413Y008754D01*
X033210Y008670D01*
X033056Y008515D01*
X032972Y008313D01*
X032972Y008094D01*
X033056Y007892D01*
X033210Y007738D01*
X033413Y007654D01*
X033631Y007654D01*
X033834Y007738D01*
X033840Y007744D01*
X033925Y007660D01*
X033685Y007660D01*
X033485Y007460D01*
X033135Y007460D01*
X033105Y007430D01*
X032638Y007897D01*
X032638Y008001D01*
X032584Y008133D01*
X032483Y008234D01*
X032351Y008288D01*
X032209Y008288D01*
X032077Y008234D01*
X031976Y008133D01*
X031922Y008001D01*
X031922Y007859D01*
X031976Y007727D01*
X032077Y007626D01*
X032209Y007572D01*
X032313Y007572D01*
X032875Y007010D01*
X032875Y007010D01*
X033010Y006875D01*
X033103Y006782D01*
X033056Y006735D01*
X033030Y006672D01*
X032984Y006783D01*
X032883Y006884D01*
X032751Y006938D01*
X032609Y006938D01*
X032477Y006884D01*
X032376Y006783D01*
X032354Y006731D01*
X031610Y007475D01*
X031610Y007475D01*
X031475Y007610D01*
X031175Y007610D01*
X031010Y007775D01*
X031010Y010685D01*
X031275Y010950D01*
X031901Y010950D01*
X031962Y010804D01*
X032085Y010681D01*
X032247Y010614D01*
X032942Y010614D01*
X033104Y010681D01*
X033228Y010804D01*
X033295Y010966D01*
X033295Y011141D01*
X033228Y011303D01*
X033104Y011427D01*
X032942Y011494D01*
X032247Y011494D01*
X032085Y011427D01*
X032069Y011410D01*
X030698Y011410D01*
X030738Y011509D01*
X030738Y011651D01*
X030706Y011730D01*
X030775Y011800D01*
X031966Y011800D01*
X032085Y011681D01*
X032247Y011614D01*
X032942Y011614D01*
X033104Y011681D01*
X033228Y011804D01*
X033295Y011966D01*
X033295Y012141D01*
X033228Y012303D01*
X033104Y012427D01*
X032942Y012494D01*
X032247Y012494D01*
X032085Y012427D01*
X031962Y012303D01*
X031944Y012260D01*
X021335Y012260D01*
X021200Y012125D01*
X014606Y005531D01*
X014584Y005583D01*
X014483Y005684D01*
X014351Y005738D01*
X014247Y005738D01*
X013725Y006260D01*
X012325Y006260D01*
X012325Y006285D01*
X012220Y006390D01*
X011440Y006390D01*
X011335Y006285D01*
X011335Y005769D01*
X011312Y005746D01*
X011275Y005658D01*
X011275Y005102D01*
X011312Y005014D01*
X011379Y004947D01*
X011467Y004910D01*
X011470Y004910D01*
X011470Y004890D01*
X010490Y004890D01*
X010490Y004910D01*
X010493Y004910D01*
X010581Y004947D01*
X010648Y005014D01*
X010685Y005102D01*
X010685Y005658D01*
X010648Y005746D01*
X010647Y005747D01*
X010709Y005722D01*
X010851Y005722D01*
X010983Y005776D01*
X011084Y005877D01*
X011138Y006009D01*
X011138Y006151D01*
X011084Y006283D01*
X010983Y006384D01*
X010851Y006438D01*
X010709Y006438D01*
X010577Y006384D01*
X010551Y006358D01*
X010520Y006390D01*
X009740Y006390D01*
X009635Y006285D01*
X009635Y005769D01*
X009612Y005746D01*
X009575Y005658D01*
X009575Y005102D01*
X009612Y005014D01*
X009679Y004947D01*
X009767Y004910D01*
X009770Y004910D01*
X009770Y004890D01*
X008790Y004890D01*
X008790Y004910D01*
X008793Y004910D01*
X008881Y004947D01*
X008948Y005014D01*
X008985Y005102D01*
X008985Y005658D01*
X008979Y005672D01*
X009101Y005672D01*
X009233Y005726D01*
X009334Y005827D01*
X009388Y005959D01*
X009388Y006101D01*
X009334Y006233D01*
X009233Y006334D01*
X009101Y006388D01*
X008959Y006388D01*
X008861Y006348D01*
X008820Y006390D01*
X008040Y006390D01*
X007935Y006285D01*
X007935Y005769D01*
X007912Y005746D01*
X007875Y005658D01*
X007875Y005102D01*
X007912Y005014D01*
X007979Y004947D01*
X008067Y004910D01*
X008070Y004910D01*
X008070Y004890D01*
X007758Y004890D01*
X007626Y004835D01*
X007525Y004734D01*
X005452Y002661D01*
X005363Y002698D01*
X005197Y002698D01*
X005043Y002635D01*
X004925Y002517D01*
X004862Y002363D01*
X004862Y002197D01*
X004925Y002043D01*
X005043Y001925D01*
X005197Y001862D01*
X005363Y001862D01*
X005504Y001920D01*
X005522Y001920D01*
X005522Y001859D01*
X005576Y001727D01*
X005677Y001626D01*
X005809Y001572D01*
X005951Y001572D01*
X006083Y001626D01*
X006157Y001700D01*
X011635Y001700D01*
X012100Y001235D01*
X012235Y001100D01*
X012935Y001100D01*
X012985Y001050D01*
X013069Y001050D01*
X013069Y000877D01*
X013136Y000716D01*
X013259Y000593D01*
X013420Y000526D01*
X013594Y000526D01*
X013755Y000593D01*
X013878Y000716D01*
X013944Y000877D01*
X013944Y001566D01*
X013878Y001727D01*
X013755Y001850D01*
X013594Y001916D01*
X013420Y001916D01*
X013259Y001850D01*
X013136Y001727D01*
X013069Y001566D01*
X013069Y001560D01*
X012425Y001560D01*
X012081Y001904D01*
X012133Y001926D01*
X012234Y002027D01*
X012288Y002159D01*
X012288Y002263D01*
X016504Y006479D01*
X016526Y006427D01*
X016627Y006326D01*
X016759Y006272D01*
X016901Y006272D01*
X017033Y006326D01*
X017107Y006400D01*
X024875Y006400D01*
X024850Y006375D01*
X023750Y005275D01*
X023750Y004457D01*
X023676Y004383D01*
X023622Y004251D01*
X023622Y004109D01*
X023676Y003977D01*
X023777Y003876D01*
X023909Y003822D01*
X024051Y003822D01*
X024183Y003876D01*
X024284Y003977D01*
X024338Y004109D01*
X024338Y004251D01*
X024284Y004383D01*
X024210Y004457D01*
X024210Y005085D01*
X025175Y006050D01*
X030703Y006050D01*
X030777Y005976D01*
X030909Y005922D01*
X031051Y005922D01*
X031183Y005976D01*
X031284Y006077D01*
X031338Y006209D01*
X031338Y006351D01*
X031318Y006400D01*
X031385Y006400D01*
X033579Y004206D01*
X033544Y004191D01*
X033210Y004525D01*
X033075Y004660D01*
X025585Y004660D01*
X025260Y004335D01*
X025260Y004503D01*
X025334Y004577D01*
X025388Y004709D01*
X025388Y004851D01*
X025334Y004983D01*
X025233Y005084D01*
X025101Y005138D01*
X024959Y005138D01*
X024827Y005084D01*
X024726Y004983D01*
X024672Y004851D01*
X024672Y004709D01*
X024726Y004577D01*
X024800Y004503D01*
X024800Y004225D01*
X024085Y003510D01*
X018775Y003510D01*
X016938Y005347D01*
X016938Y005451D01*
X016884Y005583D01*
X016783Y005684D01*
X016651Y005738D01*
X016509Y005738D01*
X016377Y005684D01*
X016276Y005583D01*
X016222Y005451D01*
X016222Y005309D01*
X016276Y005177D01*
X016377Y005076D01*
X016509Y005022D01*
X016613Y005022D01*
X018425Y003210D01*
X016935Y003210D01*
X015627Y001902D01*
X015594Y001916D01*
X015420Y001916D01*
X015259Y001850D01*
X015136Y001727D01*
X015069Y001566D01*
X015069Y000877D01*
X015136Y000716D01*
X015259Y000593D01*
X015420Y000526D01*
X015594Y000526D01*
X015755Y000593D01*
X015878Y000716D01*
X015944Y000877D01*
X015944Y001566D01*
X015943Y001568D01*
X017125Y002750D01*
X017475Y002750D01*
X016627Y001902D01*
X016594Y001916D01*
X016420Y001916D01*
X016259Y001850D01*
X016136Y001727D01*
X016069Y001566D01*
X016069Y000877D01*
X016136Y000716D01*
X016259Y000593D01*
X016420Y000526D01*
X016594Y000526D01*
X016755Y000593D01*
X016878Y000716D01*
X016944Y000877D01*
X016944Y001566D01*
X016943Y001568D01*
X017925Y002550D01*
X018275Y002550D01*
X017627Y001902D01*
X017594Y001916D01*
X017420Y001916D01*
X017259Y001850D01*
X017136Y001727D01*
X017069Y001566D01*
X017069Y000877D01*
X017136Y000716D01*
X017259Y000593D01*
X017420Y000526D01*
X017594Y000526D01*
X017755Y000593D01*
X017878Y000716D01*
X017944Y000877D01*
X017944Y001566D01*
X017943Y001568D01*
X018725Y002350D01*
X019075Y002350D01*
X018627Y001902D01*
X018594Y001916D01*
X018420Y001916D01*
X018259Y001850D01*
X018136Y001727D01*
X018069Y001566D01*
X018069Y000877D01*
X018136Y000716D01*
X018259Y000593D01*
X018420Y000526D01*
X018594Y000526D01*
X018755Y000593D01*
X018878Y000716D01*
X018944Y000877D01*
X018944Y001566D01*
X018943Y001568D01*
X019525Y002150D01*
X023875Y002150D01*
X023627Y001902D01*
X023594Y001916D01*
X023420Y001916D01*
X023259Y001850D01*
X023136Y001727D01*
X023069Y001566D01*
X023069Y000877D01*
X023136Y000716D01*
X023259Y000593D01*
X023420Y000526D01*
X023594Y000526D01*
X023755Y000593D01*
X023878Y000716D01*
X023944Y000877D01*
X023944Y001566D01*
X023943Y001568D01*
X024325Y001950D01*
X024675Y001950D01*
X024627Y001902D01*
X024594Y001916D01*
X024420Y001916D01*
X024259Y001850D01*
X024136Y001727D01*
X024069Y001566D01*
X024069Y000877D01*
X024136Y000716D01*
X024259Y000593D01*
X024420Y000526D01*
X024594Y000526D01*
X024755Y000593D01*
X024878Y000716D01*
X024944Y000877D01*
X024944Y001566D01*
X024943Y001568D01*
X026575Y003200D01*
X026925Y003200D01*
X025627Y001902D01*
X025594Y001916D01*
X025420Y001916D01*
X025259Y001850D01*
X025136Y001727D01*
X025069Y001566D01*
X025069Y000877D01*
X025136Y000716D01*
X025259Y000593D01*
X025420Y000526D01*
X025594Y000526D01*
X025755Y000593D01*
X025878Y000716D01*
X025944Y000877D01*
X025944Y001566D01*
X025943Y001568D01*
X026854Y002479D01*
X026876Y002427D01*
X026977Y002326D01*
X027109Y002272D01*
X027251Y002272D01*
X027383Y002326D01*
X027457Y002400D01*
X031025Y002400D01*
X031147Y002522D01*
X031251Y002522D01*
X031272Y002530D01*
X031272Y002509D01*
X031326Y002377D01*
X031427Y002276D01*
X031559Y002222D01*
X031701Y002222D01*
X031833Y002276D01*
X031934Y002377D01*
X031988Y002509D01*
X031988Y002613D01*
X032075Y002700D01*
X032075Y002700D01*
X032210Y002835D01*
X032210Y002975D01*
X032772Y002413D01*
X032772Y002309D01*
X032826Y002177D01*
X032873Y002130D01*
X032826Y002083D01*
X032772Y001951D01*
X032772Y001809D01*
X032826Y001677D01*
X032927Y001576D01*
X033059Y001522D01*
X033201Y001522D01*
X033333Y001576D01*
X033434Y001677D01*
X033488Y001809D01*
X033488Y001913D01*
X034225Y002650D01*
X034360Y002785D01*
X034360Y003775D01*
X034422Y003713D01*
X034422Y003609D01*
X034476Y003477D01*
X034577Y003376D01*
X034709Y003322D01*
X034851Y003322D01*
X034983Y003376D01*
X035084Y003477D01*
X035138Y003609D01*
X035138Y003751D01*
X035109Y003822D01*
X035251Y003822D01*
X035383Y003876D01*
X035484Y003977D01*
X035538Y004109D01*
X035538Y004251D01*
X035484Y004383D01*
X035383Y004484D01*
X035251Y004538D01*
X035109Y004538D01*
X034977Y004484D01*
X034903Y004410D01*
X034675Y004410D01*
X034331Y004754D01*
X034383Y004776D01*
X034484Y004877D01*
X034538Y005009D01*
X034538Y005022D01*
X034601Y005022D01*
X034733Y005076D01*
X034834Y005177D01*
X034888Y005309D01*
X034888Y005451D01*
X034834Y005583D01*
X034760Y005657D01*
X034760Y006625D01*
X034625Y006760D01*
X034338Y007047D01*
X034338Y007151D01*
X034318Y007200D01*
X034785Y007200D01*
X035532Y006453D01*
X035532Y006314D01*
X035616Y006112D01*
X035770Y005958D01*
X035973Y005874D01*
X036191Y005874D01*
X036394Y005958D01*
X036495Y006059D01*
X036495Y000365D01*
X000365Y000365D01*
X000365Y000497D02*
X000998Y000497D01*
X001015Y000490D02*
X001306Y000490D01*
X001574Y000601D01*
X001780Y000807D01*
X001891Y001076D01*
X001891Y001367D01*
X001780Y001636D01*
X001574Y001841D01*
X001306Y001953D01*
X001015Y001953D01*
X000746Y001841D01*
X000540Y001636D01*
X000429Y001367D01*
X000429Y001076D01*
X000540Y000807D01*
X000746Y000601D01*
X001015Y000490D01*
X001322Y000497D02*
X014334Y000497D01*
X014408Y000466D02*
X014225Y000542D01*
X014085Y000682D01*
X014009Y000865D01*
X014009Y001578D01*
X014085Y001761D01*
X014225Y001901D01*
X014408Y001976D01*
X014606Y001976D01*
X014789Y001901D01*
X014929Y001761D01*
X015004Y001578D01*
X015004Y000865D01*
X014929Y000682D01*
X014789Y000542D01*
X014606Y000466D01*
X014408Y000466D01*
X014680Y000497D02*
X027334Y000497D01*
X027408Y000466D02*
X027606Y000466D01*
X027789Y000542D01*
X027929Y000682D01*
X028004Y000865D01*
X028004Y001578D01*
X027929Y001761D01*
X027789Y001901D01*
X027606Y001976D01*
X027408Y001976D01*
X027225Y001901D01*
X027085Y001761D01*
X027009Y001578D01*
X027009Y000865D01*
X027085Y000682D01*
X027225Y000542D01*
X027408Y000466D01*
X027680Y000497D02*
X028334Y000497D01*
X028316Y000503D02*
X028390Y000479D01*
X028468Y000466D01*
X028507Y000466D01*
X028546Y000466D01*
X028623Y000479D01*
X028698Y000503D01*
X028768Y000538D01*
X028831Y000584D01*
X028886Y000640D01*
X028932Y000703D01*
X028968Y000773D01*
X028992Y000847D01*
X029004Y000925D01*
X029004Y001221D01*
X028507Y001221D01*
X028507Y000466D01*
X028507Y001221D01*
X028507Y001221D01*
X028507Y001221D01*
X029004Y001221D01*
X029004Y001518D01*
X028992Y001595D01*
X028968Y001670D01*
X028932Y001740D01*
X028886Y001803D01*
X028831Y001858D01*
X028768Y001904D01*
X028698Y001940D01*
X028623Y001964D01*
X028546Y001976D01*
X028507Y001976D01*
X028507Y001221D01*
X028009Y001221D01*
X028009Y000925D01*
X028022Y000847D01*
X028046Y000773D01*
X028081Y000703D01*
X028127Y000640D01*
X028183Y000584D01*
X028246Y000538D01*
X028316Y000503D01*
X028507Y000497D02*
X028507Y000497D01*
X028507Y000656D02*
X028507Y000656D01*
X028507Y000814D02*
X028507Y000814D01*
X028507Y000973D02*
X028507Y000973D01*
X028507Y001131D02*
X028507Y001131D01*
X028507Y001221D02*
X028507Y001221D01*
X028507Y001221D01*
X028009Y001221D01*
X028009Y001518D01*
X028022Y001595D01*
X028046Y001670D01*
X028081Y001740D01*
X028127Y001803D01*
X028183Y001858D01*
X028246Y001904D01*
X028316Y001940D01*
X028390Y001964D01*
X028468Y001976D01*
X028507Y001976D01*
X028507Y001221D01*
X028507Y001290D02*
X028507Y001290D01*
X028507Y001448D02*
X028507Y001448D01*
X028507Y001607D02*
X028507Y001607D01*
X028507Y001765D02*
X028507Y001765D01*
X028507Y001924D02*
X028507Y001924D01*
X028730Y001924D02*
X030441Y001924D01*
X030511Y001953D02*
X030242Y001841D01*
X030037Y001636D01*
X029925Y001367D01*
X029925Y001076D01*
X030037Y000807D01*
X030242Y000601D01*
X030511Y000490D01*
X030802Y000490D01*
X031071Y000601D01*
X031276Y000807D01*
X031388Y001076D01*
X031388Y001367D01*
X031276Y001636D01*
X031071Y001841D01*
X030802Y001953D01*
X030511Y001953D01*
X030872Y001924D02*
X032772Y001924D01*
X032790Y001765D02*
X031147Y001765D01*
X031288Y001607D02*
X032897Y001607D01*
X033363Y001607D02*
X036495Y001607D01*
X036495Y001765D02*
X033470Y001765D01*
X033499Y001924D02*
X036495Y001924D01*
X036495Y002082D02*
X033657Y002082D01*
X033816Y002241D02*
X036495Y002241D01*
X036495Y002399D02*
X033974Y002399D01*
X034133Y002558D02*
X036495Y002558D01*
X036495Y002716D02*
X034291Y002716D01*
X034360Y002875D02*
X036495Y002875D01*
X036495Y003033D02*
X034360Y003033D01*
X034360Y003192D02*
X036495Y003192D01*
X036495Y003350D02*
X034920Y003350D01*
X035097Y003509D02*
X036495Y003509D01*
X036495Y003667D02*
X035138Y003667D01*
X035261Y003826D02*
X036495Y003826D01*
X036495Y003984D02*
X035487Y003984D01*
X035538Y004143D02*
X036495Y004143D01*
X036495Y004301D02*
X035518Y004301D01*
X035407Y004460D02*
X036495Y004460D01*
X036495Y004618D02*
X034467Y004618D01*
X034383Y004777D02*
X036495Y004777D01*
X036495Y004935D02*
X034508Y004935D01*
X034750Y005094D02*
X036495Y005094D01*
X036495Y005252D02*
X034865Y005252D01*
X034888Y005411D02*
X036495Y005411D01*
X036495Y005569D02*
X034840Y005569D01*
X034760Y005728D02*
X036495Y005728D01*
X036495Y005886D02*
X036221Y005886D01*
X035943Y005886D02*
X034760Y005886D01*
X034760Y006045D02*
X035684Y006045D01*
X035578Y006203D02*
X034760Y006203D01*
X034760Y006362D02*
X035532Y006362D01*
X035465Y006520D02*
X034760Y006520D01*
X034707Y006679D02*
X035306Y006679D01*
X035148Y006837D02*
X034548Y006837D01*
X034390Y006996D02*
X034989Y006996D01*
X034831Y007154D02*
X034337Y007154D01*
X033654Y007630D02*
X032906Y007630D01*
X032747Y007788D02*
X033160Y007788D01*
X033033Y007947D02*
X032638Y007947D01*
X032595Y008105D02*
X032972Y008105D01*
X032972Y008264D02*
X032411Y008264D01*
X032149Y008264D02*
X031010Y008264D01*
X031010Y008422D02*
X033017Y008422D01*
X032972Y008566D02*
X033046Y008590D01*
X033117Y008626D01*
X033180Y008672D01*
X033236Y008728D01*
X033282Y008792D01*
X033318Y008862D01*
X033342Y008937D01*
X033355Y009014D01*
X033355Y009054D01*
X033355Y009093D01*
X033342Y009171D01*
X033318Y009246D01*
X033282Y009316D01*
X033236Y009379D01*
X033180Y009435D01*
X033117Y009481D01*
X033046Y009517D01*
X032972Y009541D01*
X032894Y009554D01*
X032595Y009554D01*
X032595Y009054D01*
X033355Y009054D01*
X032595Y009054D01*
X032595Y009054D01*
X032595Y009054D01*
X032595Y009554D01*
X032295Y009554D01*
X032217Y009541D01*
X032143Y009517D01*
X032073Y009481D01*
X032009Y009435D01*
X031953Y009379D01*
X031907Y009316D01*
X031871Y009246D01*
X031847Y009171D01*
X031835Y009093D01*
X031835Y009054D01*
X032595Y009054D01*
X032595Y008554D01*
X032894Y008554D01*
X032972Y008566D01*
X033017Y008581D02*
X033121Y008581D01*
X033244Y008739D02*
X033377Y008739D01*
X033330Y008898D02*
X035050Y008898D01*
X035050Y009056D02*
X033355Y009056D01*
X033328Y009215D02*
X035050Y009215D01*
X035050Y009373D02*
X033241Y009373D01*
X033002Y009532D02*
X035050Y009532D01*
X035050Y009690D02*
X033198Y009690D01*
X033138Y009630D02*
X033278Y009770D01*
X033355Y009954D01*
X033355Y010153D01*
X033278Y010337D01*
X033138Y010478D01*
X032954Y010554D01*
X032235Y010554D01*
X032051Y010478D01*
X031911Y010337D01*
X031835Y010153D01*
X031835Y009954D01*
X031911Y009770D01*
X032051Y009630D01*
X032235Y009554D01*
X032954Y009554D01*
X033138Y009630D01*
X032595Y009532D02*
X032595Y009532D01*
X032595Y009373D02*
X032595Y009373D01*
X032595Y009215D02*
X032595Y009215D01*
X032595Y009056D02*
X032595Y009056D01*
X032595Y009054D02*
X032595Y009054D01*
X032595Y009054D01*
X032595Y008554D01*
X032295Y008554D01*
X032217Y008566D01*
X032143Y008590D01*
X032073Y008626D01*
X032009Y008672D01*
X031953Y008728D01*
X031907Y008792D01*
X031871Y008862D01*
X031847Y008937D01*
X031835Y009014D01*
X031835Y009054D01*
X032595Y009054D01*
X032595Y008898D02*
X032595Y008898D01*
X032595Y008739D02*
X032595Y008739D01*
X032595Y008581D02*
X032595Y008581D01*
X032173Y008581D02*
X031010Y008581D01*
X031010Y008739D02*
X031945Y008739D01*
X031860Y008898D02*
X031010Y008898D01*
X031010Y009056D02*
X031835Y009056D01*
X031861Y009215D02*
X031010Y009215D01*
X031010Y009373D02*
X031949Y009373D01*
X032187Y009532D02*
X031010Y009532D01*
X031010Y009690D02*
X031991Y009690D01*
X031878Y009849D02*
X031010Y009849D01*
X031010Y010007D02*
X031835Y010007D01*
X031840Y010166D02*
X031010Y010166D01*
X031010Y010324D02*
X031905Y010324D01*
X032063Y010483D02*
X031010Y010483D01*
X031010Y010641D02*
X032181Y010641D01*
X031966Y010800D02*
X031125Y010800D01*
X030143Y010950D02*
X030076Y010883D01*
X030022Y010751D01*
X030022Y010609D01*
X030076Y010477D01*
X030150Y010403D01*
X030150Y007385D01*
X030285Y007250D01*
X030675Y006860D01*
X017107Y006860D01*
X017033Y006934D01*
X016981Y006956D01*
X020975Y010950D01*
X030143Y010950D01*
X030042Y010800D02*
X020825Y010800D01*
X020666Y010641D02*
X030022Y010641D01*
X030074Y010483D02*
X020508Y010483D01*
X020349Y010324D02*
X030150Y010324D01*
X030150Y010166D02*
X020191Y010166D01*
X020032Y010007D02*
X030150Y010007D01*
X030150Y009849D02*
X019874Y009849D01*
X019715Y009690D02*
X030150Y009690D01*
X030150Y009532D02*
X019557Y009532D01*
X019398Y009373D02*
X030150Y009373D01*
X030150Y009215D02*
X019240Y009215D01*
X019081Y009056D02*
X030150Y009056D01*
X030150Y008898D02*
X018923Y008898D01*
X018764Y008739D02*
X030150Y008739D01*
X030150Y008581D02*
X018606Y008581D01*
X018447Y008422D02*
X030150Y008422D01*
X030150Y008264D02*
X018289Y008264D01*
X018130Y008105D02*
X030150Y008105D01*
X030150Y007947D02*
X017972Y007947D01*
X017813Y007788D02*
X030150Y007788D01*
X030150Y007630D02*
X017655Y007630D01*
X017496Y007471D02*
X030150Y007471D01*
X030222Y007313D02*
X017338Y007313D01*
X017179Y007154D02*
X030381Y007154D01*
X030539Y006996D02*
X017021Y006996D01*
X016229Y007154D02*
X000365Y007154D01*
X000365Y007313D02*
X016387Y007313D01*
X016546Y007471D02*
X000365Y007471D01*
X000365Y007630D02*
X016704Y007630D01*
X016863Y007788D02*
X000365Y007788D01*
X000365Y007947D02*
X017021Y007947D01*
X017180Y008105D02*
X000365Y008105D01*
X000365Y008264D02*
X017338Y008264D01*
X017497Y008422D02*
X000365Y008422D01*
X000365Y008581D02*
X017655Y008581D01*
X017814Y008739D02*
X000365Y008739D01*
X000365Y008898D02*
X017972Y008898D01*
X018131Y009056D02*
X000365Y009056D01*
X000365Y009215D02*
X018289Y009215D01*
X018448Y009373D02*
X000365Y009373D01*
X000365Y009532D02*
X018606Y009532D01*
X018765Y009690D02*
X000365Y009690D01*
X000365Y009849D02*
X018923Y009849D01*
X019082Y010007D02*
X000365Y010007D01*
X000365Y010166D02*
X019240Y010166D01*
X019399Y010324D02*
X000365Y010324D01*
X000365Y010483D02*
X019557Y010483D01*
X019716Y010641D02*
X000365Y010641D01*
X000365Y010800D02*
X019874Y010800D01*
X020033Y010958D02*
X000365Y010958D01*
X000365Y011117D02*
X020191Y011117D01*
X020350Y011275D02*
X000365Y011275D01*
X000365Y011434D02*
X020508Y011434D01*
X020667Y011592D02*
X000365Y011592D01*
X000365Y011751D02*
X020825Y011751D01*
X020984Y011909D02*
X000365Y011909D01*
X000365Y012068D02*
X021142Y012068D01*
X021200Y012125D02*
X021200Y012125D01*
X021301Y012226D02*
X000365Y012226D01*
X000365Y012385D02*
X032043Y012385D01*
X032085Y012681D02*
X032247Y012614D01*
X032942Y012614D01*
X033104Y012681D01*
X033228Y012804D01*
X033295Y012966D01*
X033295Y013141D01*
X033228Y013303D01*
X033104Y013427D01*
X032942Y013494D01*
X032247Y013494D01*
X032085Y013427D01*
X031962Y013303D01*
X031895Y013141D01*
X031895Y012966D01*
X031962Y012804D01*
X032085Y012681D01*
X032064Y012702D02*
X030894Y012702D01*
X030802Y012663D02*
X031071Y012775D01*
X031276Y012980D01*
X031388Y013249D01*
X031388Y013540D01*
X031276Y013809D01*
X031071Y014014D01*
X030802Y014126D01*
X030511Y014126D01*
X030242Y014014D01*
X030037Y013809D01*
X029925Y013540D01*
X029925Y013249D01*
X030037Y012980D01*
X030242Y012775D01*
X030511Y012663D01*
X030802Y012663D01*
X030419Y012702D02*
X018441Y012702D01*
X018430Y012690D02*
X018505Y012765D01*
X018620Y012880D01*
X018660Y012977D01*
X018660Y013543D01*
X018620Y013641D01*
X018545Y013715D01*
X018505Y013756D01*
X018431Y013829D01*
X018430Y013830D01*
X018430Y013830D01*
X018374Y013853D01*
X018333Y013871D01*
X017997Y013871D01*
X017900Y013830D01*
X017710Y013641D01*
X017702Y013621D01*
X017656Y013640D01*
X017205Y013640D01*
X017108Y013600D01*
X016993Y013485D01*
X016977Y013469D01*
X016961Y013485D01*
X016921Y013525D01*
X016921Y013526D01*
X016846Y013600D01*
X016788Y013624D01*
X016749Y013640D01*
X016413Y013640D01*
X016316Y013600D01*
X016243Y013527D01*
X016169Y013600D01*
X016072Y013640D01*
X015621Y013640D01*
X015524Y013600D01*
X015492Y013569D01*
X015492Y013658D01*
X015452Y013756D01*
X015378Y013830D01*
X015280Y013871D01*
X014714Y013871D01*
X014617Y013830D01*
X014542Y013756D01*
X014502Y013658D01*
X014502Y013635D01*
X014488Y013640D01*
X014038Y013640D01*
X013940Y013600D01*
X013809Y013469D01*
X013794Y013485D01*
X013794Y013485D01*
X013753Y013525D01*
X013753Y013526D01*
X013679Y013600D01*
X013621Y013624D01*
X013581Y013640D01*
X013246Y013640D01*
X013148Y013600D01*
X013075Y013527D01*
X013002Y013600D01*
X012905Y013640D01*
X012799Y013640D01*
X012737Y013615D01*
X012714Y013624D01*
X012674Y013640D01*
X012454Y013640D01*
X012356Y013600D01*
X012292Y013535D01*
X012228Y013599D01*
X012227Y013600D01*
X012227Y013600D01*
X012171Y013623D01*
X012130Y013640D01*
X011679Y013640D01*
X011581Y013600D01*
X011566Y013584D01*
X011550Y013600D01*
X011453Y013640D01*
X011347Y013640D01*
X011250Y013600D01*
X011175Y013526D01*
X011170Y013512D01*
X011164Y013526D01*
X011090Y013600D01*
X010992Y013640D01*
X010887Y013640D01*
X010873Y013635D01*
X010873Y013658D01*
X010856Y013700D01*
X010833Y013756D01*
X010758Y013830D01*
X010756Y013831D01*
X010661Y013871D01*
X010556Y013871D01*
X010514Y013853D01*
X010458Y013830D01*
X010453Y013826D01*
X010384Y013756D01*
X010384Y013756D01*
X010378Y013750D01*
X010372Y013756D01*
X010298Y013830D01*
X010201Y013871D01*
X010095Y013871D01*
X009998Y013830D01*
X009923Y013756D01*
X009883Y013658D01*
X009883Y013569D01*
X009853Y013599D01*
X009851Y013600D01*
X009795Y013623D01*
X009754Y013640D01*
X009418Y013640D01*
X009321Y013600D01*
X009248Y013527D01*
X009175Y013600D01*
X009077Y013640D01*
X008626Y013640D01*
X008529Y013600D01*
X008456Y013527D01*
X008383Y013600D01*
X008382Y013600D01*
X008382Y013773D01*
X008342Y013871D01*
X008268Y013945D01*
X008170Y013986D01*
X008065Y013986D01*
X007967Y013945D01*
X007893Y013871D01*
X007852Y013773D01*
X007852Y013601D01*
X007826Y013612D01*
X007814Y013641D01*
X007740Y013715D01*
X007642Y013755D01*
X007537Y013755D01*
X007439Y013715D01*
X007365Y013641D01*
X007353Y013612D01*
X007324Y013600D01*
X007268Y013544D01*
X007213Y013599D01*
X007212Y013600D01*
X007212Y013600D01*
X007156Y013623D01*
X007114Y013640D01*
X006779Y013640D01*
X006681Y013600D01*
X006608Y013527D01*
X006535Y013600D01*
X006438Y013640D01*
X006332Y013640D01*
X006270Y013615D01*
X006247Y013624D01*
X006207Y013640D01*
X005987Y013640D01*
X005889Y013600D01*
X005815Y013526D01*
X005775Y013428D01*
X005775Y013323D01*
X005788Y013291D01*
X005778Y013295D01*
X005594Y013295D01*
X005594Y013313D01*
X005554Y013410D01*
X005479Y013485D01*
X005439Y013525D01*
X005439Y013526D01*
X005366Y013599D01*
X005364Y013600D01*
X005308Y013623D01*
X005267Y013640D01*
X004931Y013640D01*
X004834Y013600D01*
X004760Y013527D01*
X004687Y013600D01*
X004590Y013640D01*
X004484Y013640D01*
X004422Y013615D01*
X004399Y013624D01*
X004360Y013640D01*
X004139Y013640D01*
X004042Y013600D01*
X003977Y013535D01*
X003914Y013599D01*
X003912Y013600D01*
X003856Y013623D01*
X003815Y013640D01*
X003364Y013640D01*
X003267Y013600D01*
X003192Y013526D01*
X003152Y013428D01*
X003152Y012747D01*
X003192Y012650D01*
X003267Y012575D01*
X003382Y012460D01*
X003479Y012420D01*
X003585Y012420D01*
X003700Y012420D01*
X003797Y012460D01*
X003872Y012535D01*
X003912Y012632D01*
X003912Y012690D01*
X003912Y012690D01*
X003987Y012765D01*
X004102Y012880D01*
X004142Y012977D01*
X004142Y013110D01*
X004197Y013110D01*
X004272Y013035D01*
X004272Y012862D01*
X004313Y012765D01*
X004387Y012690D01*
X004484Y012650D01*
X004590Y012650D01*
X004687Y012690D01*
X004760Y012764D01*
X004834Y012690D01*
X004931Y012650D01*
X005267Y012650D01*
X005364Y012690D01*
X005412Y012738D01*
X005460Y012690D01*
X005557Y012650D01*
X005778Y012650D01*
X005875Y012690D01*
X005950Y012765D01*
X005990Y012862D01*
X005990Y013083D01*
X005977Y013115D01*
X005987Y013110D01*
X006045Y013110D01*
X006120Y013035D01*
X006120Y012862D01*
X006160Y012765D01*
X006235Y012690D01*
X006332Y012650D01*
X006438Y012650D01*
X006535Y012690D01*
X006608Y012764D01*
X006681Y012690D01*
X006779Y012650D01*
X007114Y012650D01*
X007212Y012690D01*
X007268Y012747D01*
X007324Y012690D01*
X007422Y012650D01*
X007527Y012650D01*
X007625Y012690D01*
X007740Y012805D01*
X007755Y012820D01*
X007778Y012765D01*
X007852Y012690D01*
X007950Y012650D01*
X008285Y012650D01*
X008383Y012690D01*
X008398Y012706D01*
X008414Y012690D01*
X008511Y012650D01*
X008617Y012650D01*
X008714Y012690D01*
X008789Y012765D01*
X008794Y012778D01*
X008800Y012765D01*
X008874Y012690D01*
X008972Y012650D01*
X009077Y012650D01*
X009175Y012690D01*
X009248Y012764D01*
X009321Y012690D01*
X009418Y012650D01*
X009754Y012650D01*
X009851Y012690D01*
X009925Y012764D01*
X009998Y012690D01*
X010095Y012650D01*
X010201Y012650D01*
X010298Y012690D01*
X010372Y012765D01*
X010378Y012778D01*
X010384Y012765D01*
X010458Y012690D01*
X010556Y012650D01*
X010661Y012650D01*
X010707Y012669D01*
X010715Y012650D01*
X010830Y012535D01*
X010905Y012460D01*
X011002Y012420D01*
X011223Y012420D01*
X011320Y012460D01*
X011395Y012535D01*
X011435Y012632D01*
X011435Y012690D01*
X011435Y012690D01*
X011474Y012729D01*
X011507Y012650D01*
X011581Y012575D01*
X011697Y012460D01*
X011794Y012420D01*
X012014Y012420D01*
X012112Y012460D01*
X012186Y012535D01*
X012227Y012632D01*
X012227Y012690D01*
X012302Y012765D01*
X012417Y012880D01*
X012457Y012977D01*
X012457Y013110D01*
X012512Y013110D01*
X012587Y013035D01*
X012587Y012862D01*
X012627Y012765D01*
X012702Y012690D01*
X012799Y012650D01*
X012905Y012650D01*
X013002Y012690D01*
X013075Y012764D01*
X013148Y012690D01*
X013246Y012650D01*
X013581Y012650D01*
X013679Y012690D01*
X013752Y012764D01*
X013825Y012690D01*
X013923Y012650D01*
X014028Y012650D01*
X014125Y012690D01*
X014200Y012765D01*
X014205Y012778D01*
X014211Y012765D01*
X014286Y012690D01*
X014383Y012650D01*
X014488Y012650D01*
X014586Y012690D01*
X014601Y012706D01*
X014617Y012690D01*
X014714Y012650D01*
X015280Y012650D01*
X015378Y012690D01*
X015393Y012706D01*
X015409Y012690D01*
X015506Y012650D01*
X015612Y012650D01*
X015709Y012690D01*
X015784Y012765D01*
X015789Y012778D01*
X015795Y012765D01*
X015869Y012690D01*
X015967Y012650D01*
X016072Y012650D01*
X016169Y012690D01*
X016243Y012764D01*
X016316Y012690D01*
X016413Y012650D01*
X016749Y012650D01*
X016846Y012690D01*
X016961Y012805D01*
X016977Y012821D01*
X016993Y012805D01*
X017033Y012765D01*
X017033Y012765D01*
X017108Y012690D01*
X017205Y012650D01*
X017338Y012650D01*
X017338Y012632D01*
X017378Y012535D01*
X017453Y012460D01*
X017550Y012420D01*
X017656Y012420D01*
X017753Y012460D01*
X017828Y012535D01*
X017868Y012632D01*
X017868Y012722D01*
X017900Y012690D01*
X017997Y012650D01*
X018333Y012650D01*
X018430Y012690D01*
X018600Y012860D02*
X030157Y012860D01*
X030021Y013019D02*
X018660Y013019D01*
X018660Y013177D02*
X029955Y013177D01*
X029925Y013336D02*
X018660Y013336D01*
X018660Y013494D02*
X029925Y013494D01*
X029972Y013653D02*
X018608Y013653D01*
X018545Y013715D02*
X018545Y013715D01*
X018505Y013756D02*
X018505Y013756D01*
X018449Y013811D02*
X030039Y013811D01*
X030197Y013970D02*
X008209Y013970D01*
X008026Y013970D02*
X001619Y013970D01*
X001574Y014014D02*
X001306Y014126D01*
X001015Y014126D01*
X000746Y014014D01*
X000540Y013809D01*
X000429Y013540D01*
X000429Y013249D01*
X000540Y012980D01*
X000746Y012775D01*
X001015Y012663D01*
X001306Y012663D01*
X001574Y012775D01*
X001780Y012980D01*
X001891Y013249D01*
X001891Y013540D01*
X001780Y013809D01*
X001574Y014014D01*
X001778Y013811D02*
X007868Y013811D01*
X007852Y013653D02*
X007802Y013653D01*
X007377Y013653D02*
X001845Y013653D01*
X001891Y013494D02*
X003179Y013494D01*
X003152Y013336D02*
X001891Y013336D01*
X001862Y013177D02*
X003152Y013177D01*
X003152Y013019D02*
X001796Y013019D01*
X001660Y012860D02*
X003152Y012860D01*
X003171Y012702D02*
X001398Y012702D01*
X000923Y012702D02*
X000365Y012702D01*
X000365Y012860D02*
X000661Y012860D01*
X000525Y013019D02*
X000365Y013019D01*
X000365Y013177D02*
X000459Y013177D01*
X000429Y013336D02*
X000365Y013336D01*
X000365Y013494D02*
X000429Y013494D01*
X000476Y013653D02*
X000365Y013653D01*
X000365Y013811D02*
X000543Y013811D01*
X000701Y013970D02*
X000365Y013970D01*
X000365Y014128D02*
X031895Y014128D01*
X031895Y013970D02*
X031115Y013970D01*
X031274Y013811D02*
X031959Y013811D01*
X032153Y013653D02*
X031341Y013653D01*
X031388Y013494D02*
X035091Y013494D01*
X035249Y013336D02*
X033195Y013336D01*
X033280Y013177D02*
X035408Y013177D01*
X035500Y013019D02*
X035214Y013019D01*
X035370Y012860D02*
X035500Y012860D01*
X035426Y012702D02*
X035370Y012702D01*
X034646Y013019D02*
X033295Y013019D01*
X033251Y012860D02*
X034490Y012860D01*
X034490Y012702D02*
X033125Y012702D01*
X033146Y012385D02*
X034603Y012385D01*
X034490Y012543D02*
X017831Y012543D01*
X017868Y012702D02*
X017888Y012702D01*
X017375Y012543D02*
X012190Y012543D01*
X012227Y012690D02*
X012227Y012690D01*
X012238Y012702D02*
X012691Y012702D01*
X012588Y012860D02*
X012397Y012860D01*
X012457Y013019D02*
X012587Y013019D01*
X013013Y012702D02*
X013137Y012702D01*
X013690Y012702D02*
X013814Y012702D01*
X014137Y012702D02*
X014274Y012702D01*
X014597Y012702D02*
X014606Y012702D01*
X015389Y012702D02*
X015398Y012702D01*
X015720Y012702D02*
X015858Y012702D01*
X016181Y012702D02*
X016305Y012702D01*
X016857Y012702D02*
X017097Y012702D01*
X016993Y012805D02*
X016993Y012805D01*
X016961Y013485D02*
X016961Y013485D01*
X016952Y013494D02*
X017002Y013494D01*
X017722Y013653D02*
X015492Y013653D01*
X015397Y013811D02*
X017880Y013811D01*
X014598Y013811D02*
X010778Y013811D01*
X010833Y013756D02*
X010833Y013756D01*
X010873Y013653D02*
X014502Y013653D01*
X013834Y013494D02*
X013785Y013494D01*
X011614Y012543D02*
X011398Y012543D01*
X011446Y012702D02*
X011485Y012702D01*
X010822Y012543D02*
X003875Y012543D01*
X003923Y012702D02*
X004376Y012702D01*
X004273Y012860D02*
X004082Y012860D01*
X004142Y013019D02*
X004272Y013019D01*
X004698Y012702D02*
X004822Y012702D01*
X005375Y012702D02*
X005449Y012702D01*
X005886Y012702D02*
X006224Y012702D01*
X006121Y012860D02*
X005989Y012860D01*
X005990Y013019D02*
X006120Y013019D01*
X005775Y013336D02*
X005585Y013336D01*
X005479Y013485D02*
X005479Y013485D01*
X005470Y013494D02*
X005802Y013494D01*
X005364Y013600D02*
X005364Y013600D01*
X003912Y013600D02*
X003912Y013600D01*
X003299Y012543D02*
X000365Y012543D01*
X006546Y012702D02*
X006670Y012702D01*
X007223Y012702D02*
X007313Y012702D01*
X007636Y012702D02*
X007841Y012702D01*
X007740Y012805D02*
X007740Y012805D01*
X008394Y012702D02*
X008403Y012702D01*
X008725Y012702D02*
X008863Y012702D01*
X009186Y012702D02*
X009310Y012702D01*
X009863Y012702D02*
X009987Y012702D01*
X010309Y012702D02*
X010447Y012702D01*
X009851Y013600D02*
X009851Y013600D01*
X009883Y013653D02*
X008382Y013653D01*
X008367Y013811D02*
X009978Y013811D01*
X010317Y013811D02*
X010439Y013811D01*
X010458Y013830D02*
X010458Y013830D01*
X016070Y006996D02*
X000365Y006996D01*
X000365Y006837D02*
X015912Y006837D01*
X015753Y006679D02*
X000365Y006679D01*
X000365Y006520D02*
X015595Y006520D01*
X015436Y006362D02*
X012248Y006362D01*
X011412Y006362D02*
X011005Y006362D01*
X011117Y006203D02*
X011335Y006203D01*
X011335Y006045D02*
X011138Y006045D01*
X011088Y005886D02*
X011335Y005886D01*
X011304Y005728D02*
X010866Y005728D01*
X010694Y005728D02*
X010656Y005728D01*
X010685Y005569D02*
X011275Y005569D01*
X011275Y005411D02*
X010685Y005411D01*
X010685Y005252D02*
X011275Y005252D01*
X011279Y005094D02*
X010681Y005094D01*
X010553Y004935D02*
X011407Y004935D01*
X009707Y004935D02*
X008853Y004935D01*
X008981Y005094D02*
X009579Y005094D01*
X009575Y005252D02*
X008985Y005252D01*
X008985Y005411D02*
X009575Y005411D01*
X009575Y005569D02*
X008985Y005569D01*
X009234Y005728D02*
X009604Y005728D01*
X009635Y005886D02*
X009358Y005886D01*
X009388Y006045D02*
X009635Y006045D01*
X009635Y006203D02*
X009346Y006203D01*
X009166Y006362D02*
X009712Y006362D01*
X008894Y006362D02*
X008848Y006362D01*
X008012Y006362D02*
X000365Y006362D01*
X000365Y006203D02*
X007935Y006203D01*
X007935Y006045D02*
X000365Y006045D01*
X000365Y005886D02*
X007935Y005886D01*
X007904Y005728D02*
X000365Y005728D01*
X000365Y005569D02*
X007875Y005569D01*
X007875Y005411D02*
X000365Y005411D01*
X000365Y005252D02*
X007875Y005252D01*
X007879Y005094D02*
X000365Y005094D01*
X000365Y004935D02*
X008007Y004935D01*
X007567Y004777D02*
X000365Y004777D01*
X000365Y004618D02*
X007409Y004618D01*
X007250Y004460D02*
X000365Y004460D01*
X000365Y004301D02*
X007092Y004301D01*
X006933Y004143D02*
X000365Y004143D01*
X000365Y003984D02*
X006775Y003984D01*
X006616Y003826D02*
X000365Y003826D01*
X000365Y003667D02*
X006458Y003667D01*
X006299Y003509D02*
X000365Y003509D01*
X000365Y003350D02*
X006141Y003350D01*
X005982Y003192D02*
X000365Y003192D01*
X000365Y003033D02*
X005824Y003033D01*
X005665Y002875D02*
X000365Y002875D01*
X000365Y002716D02*
X005507Y002716D01*
X004966Y002558D02*
X000365Y002558D01*
X000365Y002399D02*
X004876Y002399D01*
X004862Y002241D02*
X000365Y002241D01*
X000365Y002082D02*
X004909Y002082D01*
X005047Y001924D02*
X001376Y001924D01*
X001651Y001765D02*
X005560Y001765D01*
X005724Y001607D02*
X001792Y001607D01*
X001858Y001448D02*
X011887Y001448D01*
X012045Y001290D02*
X001891Y001290D01*
X001891Y001131D02*
X012204Y001131D01*
X013069Y000973D02*
X001849Y000973D01*
X001783Y000814D02*
X013095Y000814D01*
X013196Y000656D02*
X001629Y000656D01*
X000692Y000656D02*
X000365Y000656D01*
X000365Y000814D02*
X000538Y000814D01*
X000472Y000973D02*
X000365Y000973D01*
X000365Y001131D02*
X000429Y001131D01*
X000429Y001290D02*
X000365Y001290D01*
X000365Y001448D02*
X000463Y001448D01*
X000528Y001607D02*
X000365Y001607D01*
X000365Y001765D02*
X000670Y001765D01*
X000945Y001924D02*
X000365Y001924D01*
X006036Y001607D02*
X011728Y001607D01*
X012127Y001924D02*
X014280Y001924D01*
X014089Y001765D02*
X013839Y001765D01*
X013927Y001607D02*
X014021Y001607D01*
X014009Y001448D02*
X013944Y001448D01*
X013944Y001290D02*
X014009Y001290D01*
X014009Y001131D02*
X013944Y001131D01*
X013944Y000973D02*
X014009Y000973D01*
X014030Y000814D02*
X013918Y000814D01*
X013817Y000656D02*
X014112Y000656D01*
X014902Y000656D02*
X015196Y000656D01*
X015095Y000814D02*
X014983Y000814D01*
X015004Y000973D02*
X015069Y000973D01*
X015069Y001131D02*
X015004Y001131D01*
X015004Y001290D02*
X015069Y001290D01*
X015069Y001448D02*
X015004Y001448D01*
X014992Y001607D02*
X015086Y001607D01*
X015174Y001765D02*
X014924Y001765D01*
X014733Y001924D02*
X015648Y001924D01*
X015807Y002082D02*
X012257Y002082D01*
X012288Y002241D02*
X015965Y002241D01*
X016124Y002399D02*
X012424Y002399D01*
X012583Y002558D02*
X016282Y002558D01*
X016441Y002716D02*
X012741Y002716D01*
X012900Y002875D02*
X016599Y002875D01*
X016758Y003033D02*
X013058Y003033D01*
X013217Y003192D02*
X016916Y003192D01*
X017091Y002716D02*
X017441Y002716D01*
X017282Y002558D02*
X016933Y002558D01*
X016774Y002399D02*
X017124Y002399D01*
X016965Y002241D02*
X016616Y002241D01*
X016457Y002082D02*
X016807Y002082D01*
X016648Y001924D02*
X016299Y001924D01*
X016174Y001765D02*
X016140Y001765D01*
X016086Y001607D02*
X015982Y001607D01*
X015944Y001448D02*
X016069Y001448D01*
X016069Y001290D02*
X015944Y001290D01*
X015944Y001131D02*
X016069Y001131D01*
X016069Y000973D02*
X015944Y000973D01*
X015918Y000814D02*
X016095Y000814D01*
X016196Y000656D02*
X015817Y000656D01*
X016817Y000656D02*
X017196Y000656D01*
X017095Y000814D02*
X016918Y000814D01*
X016944Y000973D02*
X017069Y000973D01*
X017069Y001131D02*
X016944Y001131D01*
X016944Y001290D02*
X017069Y001290D01*
X017069Y001448D02*
X016944Y001448D01*
X016982Y001607D02*
X017086Y001607D01*
X017140Y001765D02*
X017174Y001765D01*
X017299Y001924D02*
X017648Y001924D01*
X017807Y002082D02*
X017457Y002082D01*
X017616Y002241D02*
X017965Y002241D01*
X018124Y002399D02*
X017774Y002399D01*
X018616Y002241D02*
X018965Y002241D01*
X018807Y002082D02*
X018457Y002082D01*
X018299Y001924D02*
X018648Y001924D01*
X018174Y001765D02*
X018140Y001765D01*
X018086Y001607D02*
X017982Y001607D01*
X017944Y001448D02*
X018069Y001448D01*
X018069Y001290D02*
X017944Y001290D01*
X017944Y001131D02*
X018069Y001131D01*
X018069Y000973D02*
X017944Y000973D01*
X017918Y000814D02*
X018095Y000814D01*
X018196Y000656D02*
X017817Y000656D01*
X018817Y000656D02*
X019196Y000656D01*
X019136Y000716D02*
X019069Y000877D01*
X019069Y001566D01*
X019136Y001727D01*
X019259Y001850D01*
X019420Y001916D01*
X019594Y001916D01*
X019755Y001850D01*
X019878Y001727D01*
X019944Y001566D01*
X019944Y000877D01*
X019878Y000716D01*
X019755Y000593D01*
X019594Y000526D01*
X019420Y000526D01*
X019259Y000593D01*
X019136Y000716D01*
X019095Y000814D02*
X018918Y000814D01*
X018944Y000973D02*
X019069Y000973D01*
X019069Y001131D02*
X018944Y001131D01*
X018944Y001290D02*
X019069Y001290D01*
X019069Y001448D02*
X018944Y001448D01*
X018982Y001607D02*
X019086Y001607D01*
X019140Y001765D02*
X019174Y001765D01*
X019299Y001924D02*
X023648Y001924D01*
X023807Y002082D02*
X019457Y002082D01*
X019839Y001765D02*
X020174Y001765D01*
X020136Y001727D02*
X020069Y001566D01*
X020069Y000877D01*
X020136Y000716D01*
X020259Y000593D01*
X020420Y000526D01*
X020594Y000526D01*
X020755Y000593D01*
X020878Y000716D01*
X020944Y000877D01*
X020944Y001566D01*
X020878Y001727D01*
X020755Y001850D01*
X020594Y001916D01*
X020420Y001916D01*
X020259Y001850D01*
X020136Y001727D01*
X020086Y001607D02*
X019927Y001607D01*
X019944Y001448D02*
X020069Y001448D01*
X020069Y001290D02*
X019944Y001290D01*
X019944Y001131D02*
X020069Y001131D01*
X020069Y000973D02*
X019944Y000973D01*
X019918Y000814D02*
X020095Y000814D01*
X020196Y000656D02*
X019817Y000656D01*
X020817Y000656D02*
X021196Y000656D01*
X021136Y000716D02*
X021259Y000593D01*
X021420Y000526D01*
X021594Y000526D01*
X021755Y000593D01*
X021878Y000716D01*
X021944Y000877D01*
X021944Y001566D01*
X021878Y001727D01*
X021755Y001850D01*
X021594Y001916D01*
X021420Y001916D01*
X021259Y001850D01*
X021136Y001727D01*
X021069Y001566D01*
X021069Y000877D01*
X021136Y000716D01*
X021095Y000814D02*
X020918Y000814D01*
X020944Y000973D02*
X021069Y000973D01*
X021069Y001131D02*
X020944Y001131D01*
X020944Y001290D02*
X021069Y001290D01*
X021069Y001448D02*
X020944Y001448D01*
X020927Y001607D02*
X021086Y001607D01*
X021174Y001765D02*
X020839Y001765D01*
X021839Y001765D02*
X022174Y001765D01*
X022136Y001727D02*
X022069Y001566D01*
X022069Y000877D01*
X022136Y000716D01*
X022259Y000593D01*
X022420Y000526D01*
X022594Y000526D01*
X022755Y000593D01*
X022878Y000716D01*
X022944Y000877D01*
X022944Y001566D01*
X022878Y001727D01*
X022755Y001850D01*
X022594Y001916D01*
X022420Y001916D01*
X022259Y001850D01*
X022136Y001727D01*
X022086Y001607D02*
X021927Y001607D01*
X021944Y001448D02*
X022069Y001448D01*
X022069Y001290D02*
X021944Y001290D01*
X021944Y001131D02*
X022069Y001131D01*
X022069Y000973D02*
X021944Y000973D01*
X021918Y000814D02*
X022095Y000814D01*
X022196Y000656D02*
X021817Y000656D01*
X022817Y000656D02*
X023196Y000656D01*
X023095Y000814D02*
X022918Y000814D01*
X022944Y000973D02*
X023069Y000973D01*
X023069Y001131D02*
X022944Y001131D01*
X022944Y001290D02*
X023069Y001290D01*
X023069Y001448D02*
X022944Y001448D01*
X022927Y001607D02*
X023086Y001607D01*
X023174Y001765D02*
X022839Y001765D01*
X023944Y001448D02*
X024069Y001448D01*
X024069Y001290D02*
X023944Y001290D01*
X023944Y001131D02*
X024069Y001131D01*
X024069Y000973D02*
X023944Y000973D01*
X023918Y000814D02*
X024095Y000814D01*
X024196Y000656D02*
X023817Y000656D01*
X024817Y000656D02*
X025196Y000656D01*
X025095Y000814D02*
X024918Y000814D01*
X024944Y000973D02*
X025069Y000973D01*
X025069Y001131D02*
X024944Y001131D01*
X024944Y001290D02*
X025069Y001290D01*
X025069Y001448D02*
X024944Y001448D01*
X024982Y001607D02*
X025086Y001607D01*
X025140Y001765D02*
X025174Y001765D01*
X025299Y001924D02*
X025648Y001924D01*
X025807Y002082D02*
X025457Y002082D01*
X025616Y002241D02*
X025965Y002241D01*
X026124Y002399D02*
X025774Y002399D01*
X025933Y002558D02*
X026282Y002558D01*
X026441Y002716D02*
X026091Y002716D01*
X026250Y002875D02*
X026599Y002875D01*
X026758Y003033D02*
X026408Y003033D01*
X026567Y003192D02*
X026916Y003192D01*
X026904Y002399D02*
X026774Y002399D01*
X026616Y002241D02*
X031513Y002241D01*
X031747Y002241D02*
X032800Y002241D01*
X032772Y002399D02*
X031943Y002399D01*
X031988Y002558D02*
X032627Y002558D01*
X032469Y002716D02*
X032091Y002716D01*
X032210Y002875D02*
X032310Y002875D01*
X031317Y002399D02*
X027456Y002399D01*
X026457Y002082D02*
X032826Y002082D01*
X031354Y001448D02*
X036495Y001448D01*
X036495Y001290D02*
X031388Y001290D01*
X031388Y001131D02*
X036495Y001131D01*
X036495Y000973D02*
X031345Y000973D01*
X031279Y000814D02*
X036495Y000814D01*
X036495Y000656D02*
X031125Y000656D01*
X030818Y000497D02*
X036495Y000497D01*
X030494Y000497D02*
X028680Y000497D01*
X028898Y000656D02*
X030188Y000656D01*
X030034Y000814D02*
X028981Y000814D01*
X029004Y000973D02*
X029968Y000973D01*
X029925Y001131D02*
X029004Y001131D01*
X029004Y001290D02*
X029925Y001290D01*
X029959Y001448D02*
X029004Y001448D01*
X028988Y001607D02*
X030024Y001607D01*
X030166Y001765D02*
X028914Y001765D01*
X028284Y001924D02*
X027733Y001924D01*
X027924Y001765D02*
X028100Y001765D01*
X028025Y001607D02*
X027992Y001607D01*
X028004Y001448D02*
X028009Y001448D01*
X028004Y001290D02*
X028009Y001290D01*
X028004Y001131D02*
X028009Y001131D01*
X028004Y000973D02*
X028009Y000973D01*
X028032Y000814D02*
X027983Y000814D01*
X027902Y000656D02*
X028116Y000656D01*
X027112Y000656D02*
X026817Y000656D01*
X026878Y000716D02*
X026944Y000877D01*
X026944Y001566D01*
X026878Y001727D01*
X026755Y001850D01*
X026594Y001916D01*
X026420Y001916D01*
X026259Y001850D01*
X026136Y001727D01*
X026069Y001566D01*
X026069Y000877D01*
X026136Y000716D01*
X026259Y000593D01*
X026420Y000526D01*
X026594Y000526D01*
X026755Y000593D01*
X026878Y000716D01*
X026918Y000814D02*
X027030Y000814D01*
X027009Y000973D02*
X026944Y000973D01*
X026944Y001131D02*
X027009Y001131D01*
X027009Y001290D02*
X026944Y001290D01*
X026944Y001448D02*
X027009Y001448D01*
X027021Y001607D02*
X026927Y001607D01*
X026839Y001765D02*
X027089Y001765D01*
X027280Y001924D02*
X026299Y001924D01*
X026174Y001765D02*
X026140Y001765D01*
X026086Y001607D02*
X025982Y001607D01*
X025944Y001448D02*
X026069Y001448D01*
X026069Y001290D02*
X025944Y001290D01*
X025944Y001131D02*
X026069Y001131D01*
X026069Y000973D02*
X025944Y000973D01*
X025918Y000814D02*
X026095Y000814D01*
X026196Y000656D02*
X025817Y000656D01*
X024086Y001607D02*
X023982Y001607D01*
X024140Y001765D02*
X024174Y001765D01*
X024299Y001924D02*
X024648Y001924D01*
X024242Y003667D02*
X018618Y003667D01*
X018460Y003826D02*
X023899Y003826D01*
X024061Y003826D02*
X024400Y003826D01*
X024287Y003984D02*
X024559Y003984D01*
X024717Y004143D02*
X024338Y004143D01*
X024318Y004301D02*
X024800Y004301D01*
X024800Y004460D02*
X024210Y004460D01*
X023750Y004460D02*
X017826Y004460D01*
X017984Y004301D02*
X023642Y004301D01*
X023622Y004143D02*
X018143Y004143D01*
X018301Y003984D02*
X023673Y003984D01*
X025260Y004460D02*
X025384Y004460D01*
X025351Y004618D02*
X025543Y004618D01*
X025388Y004777D02*
X033008Y004777D01*
X033117Y004618D02*
X033167Y004618D01*
X033276Y004460D02*
X033325Y004460D01*
X033434Y004301D02*
X033484Y004301D01*
X034626Y004460D02*
X034953Y004460D01*
X034422Y003667D02*
X034360Y003667D01*
X034360Y003509D02*
X034463Y003509D01*
X034360Y003350D02*
X034640Y003350D01*
X032850Y004935D02*
X025354Y004935D01*
X025210Y005094D02*
X032691Y005094D01*
X032533Y005252D02*
X024377Y005252D01*
X024219Y005094D02*
X024850Y005094D01*
X024706Y004935D02*
X024210Y004935D01*
X024210Y004777D02*
X024672Y004777D01*
X024709Y004618D02*
X024210Y004618D01*
X023750Y004618D02*
X017667Y004618D01*
X017509Y004777D02*
X023750Y004777D01*
X023750Y004935D02*
X017350Y004935D01*
X017192Y005094D02*
X023750Y005094D01*
X023750Y005252D02*
X017033Y005252D01*
X016938Y005411D02*
X023885Y005411D01*
X024044Y005569D02*
X016890Y005569D01*
X016678Y005728D02*
X024202Y005728D01*
X024361Y005886D02*
X015911Y005886D01*
X015753Y005728D02*
X016482Y005728D01*
X016270Y005569D02*
X015594Y005569D01*
X015436Y005411D02*
X016222Y005411D01*
X016245Y005252D02*
X015277Y005252D01*
X015119Y005094D02*
X016360Y005094D01*
X016700Y004935D02*
X014960Y004935D01*
X014802Y004777D02*
X016858Y004777D01*
X017017Y004618D02*
X014643Y004618D01*
X014485Y004460D02*
X017175Y004460D01*
X017334Y004301D02*
X014326Y004301D01*
X014168Y004143D02*
X017492Y004143D01*
X017651Y003984D02*
X014009Y003984D01*
X013851Y003826D02*
X017809Y003826D01*
X017968Y003667D02*
X013692Y003667D01*
X013534Y003509D02*
X018126Y003509D01*
X018285Y003350D02*
X013375Y003350D01*
X013174Y001765D02*
X012220Y001765D01*
X012379Y001607D02*
X013086Y001607D01*
X014590Y005569D02*
X014644Y005569D01*
X014802Y005728D02*
X014378Y005728D01*
X014099Y005886D02*
X014961Y005886D01*
X015119Y006045D02*
X013941Y006045D01*
X013782Y006203D02*
X015278Y006203D01*
X016070Y006045D02*
X024519Y006045D01*
X024678Y006203D02*
X016228Y006203D01*
X016387Y006362D02*
X016592Y006362D01*
X017068Y006362D02*
X024836Y006362D01*
X025170Y006045D02*
X030709Y006045D01*
X031251Y006045D02*
X031740Y006045D01*
X031582Y006203D02*
X031336Y006203D01*
X031334Y006362D02*
X031423Y006362D01*
X031899Y005886D02*
X025011Y005886D01*
X024853Y005728D02*
X032057Y005728D01*
X032216Y005569D02*
X024694Y005569D01*
X024536Y005411D02*
X032374Y005411D01*
X033027Y006679D02*
X033032Y006679D01*
X033048Y006837D02*
X032930Y006837D01*
X033010Y006875D02*
X033010Y006875D01*
X032889Y006996D02*
X032090Y006996D01*
X032248Y006837D02*
X032430Y006837D01*
X032731Y007154D02*
X031931Y007154D01*
X031773Y007313D02*
X032572Y007313D01*
X032414Y007471D02*
X031614Y007471D01*
X031156Y007630D02*
X032074Y007630D01*
X031951Y007788D02*
X031010Y007788D01*
X031010Y007947D02*
X031922Y007947D01*
X031965Y008105D02*
X031010Y008105D01*
X033064Y007471D02*
X033496Y007471D01*
X034130Y008105D02*
X035280Y008105D01*
X035121Y008264D02*
X034072Y008264D01*
X034027Y008422D02*
X035050Y008422D01*
X035050Y008581D02*
X033923Y008581D01*
X033667Y008739D02*
X035050Y008739D01*
X035050Y009849D02*
X033311Y009849D01*
X033355Y010007D02*
X035050Y010007D01*
X035050Y010166D02*
X033349Y010166D01*
X033284Y010324D02*
X035050Y010324D01*
X035050Y010483D02*
X033126Y010483D01*
X033008Y010641D02*
X035050Y010641D01*
X035050Y010800D02*
X033223Y010800D01*
X033291Y010958D02*
X035050Y010958D01*
X035050Y011117D02*
X033295Y011117D01*
X033239Y011275D02*
X033628Y011275D01*
X033723Y011180D02*
X033930Y011180D01*
X034137Y011180D01*
X034430Y011473D01*
X034430Y011680D01*
X034430Y011887D01*
X034137Y012180D01*
X033930Y012180D01*
X033930Y011680D01*
X034430Y011680D01*
X033930Y011680D01*
X033930Y011680D01*
X033930Y011680D01*
X033930Y011180D01*
X033930Y011680D01*
X033930Y011680D01*
X033930Y011680D01*
X033430Y011680D01*
X033430Y011887D01*
X033723Y012180D01*
X033930Y012180D01*
X033930Y011680D01*
X033430Y011680D01*
X033430Y011473D01*
X033723Y011180D01*
X033930Y011275D02*
X033930Y011275D01*
X033930Y011434D02*
X033930Y011434D01*
X033930Y011592D02*
X033930Y011592D01*
X033930Y011751D02*
X033930Y011751D01*
X033930Y011909D02*
X033930Y011909D01*
X034408Y011909D02*
X035050Y011909D01*
X035050Y011751D02*
X034430Y011751D01*
X034430Y011592D02*
X035050Y011592D01*
X035050Y011434D02*
X034391Y011434D01*
X034232Y011275D02*
X035050Y011275D01*
X033469Y011434D02*
X033087Y011434D01*
X033430Y011592D02*
X030738Y011592D01*
X030726Y011751D02*
X032015Y011751D01*
X032102Y011434D02*
X030707Y011434D01*
X033174Y011751D02*
X033430Y011751D01*
X033452Y011909D02*
X033271Y011909D01*
X033295Y012068D02*
X033610Y012068D01*
X033930Y012068D02*
X033930Y012068D01*
X034250Y012068D02*
X035100Y012068D01*
X035100Y012226D02*
X033259Y012226D01*
X031939Y012860D02*
X031156Y012860D01*
X031292Y013019D02*
X031895Y013019D01*
X031909Y013177D02*
X031358Y013177D01*
X031388Y013336D02*
X031994Y013336D01*
X033036Y013653D02*
X034932Y013653D01*
X036481Y006045D02*
X036495Y006045D01*
X010555Y006362D02*
X010548Y006362D01*
M02*
